<svg version="1.1" xmlns="http://www.w3.org/2000/svg" xmlns:xlink="http://www.w3.org/1999/xlink" width="27.75001" height="29.72533" viewBox="0,0,27.75001,29.72533"><g transform="translate(-226.12499,-164.63734)"><g data-paper-data="{&quot;isPaintingLayer&quot;:true}" fill-rule="nonzero" stroke-linejoin="miter" stroke-miterlimit="10" stroke-dasharray="" stroke-dashoffset="0" style="mix-blend-mode: normal"><path d="M238.41651,170.65489c0,0 0.8372,-1.84452 1.54146,-2.65547c0.74584,-0.85882 2.816,-2.36208 2.816,-2.36208" fill="none" stroke="#00a133" stroke-width="2" stroke-linecap="round"/><path d="M237.711,172.14377l-2.1875,-1.9375c0,0 1.0152,0.25 2.375,0.25c0.72531,0 2.0692,-0.78286 2.0692,-0.78286c0,0 1.72696,0.64703 2.74462,0.68565c0.90415,0.03432 1.74868,-0.15279 1.74868,-0.15279l-2.3125,2.0625z" fill="#00a133" stroke="#00a133" stroke-width="2" stroke-linecap="butt"/><path d="M240.50151,194.36267c-7.93992,0 -14.37651,-4.83527 -14.37651,-11.41666c0,-4.26342 2.03238,-8.6304 6.09345,-10.88415c2.20796,-1.22534 5.48661,-0.24681 8.28306,-0.24681c1.88946,0 3.63699,-0.98358 5.20314,-0.43442c5.01514,1.75854 8.17036,6.05015 8.17036,11.06537c0,6.58139 -5.43357,11.91666 -13.37349,11.91666z" fill="#ff4040" stroke="none" stroke-width="0" stroke-linecap="butt"/></g></g></svg>