<svg version="1.1" xmlns="http://www.w3.org/2000/svg" xmlns:xlink="http://www.w3.org/1999/xlink" width="76.74027" height="90.5" viewBox="0,0,76.74027,90.5"><g transform="translate(-201.93069,-134.75)"><g data-paper-data="{&quot;isPaintingLayer&quot;:true}" fill-rule="nonzero" stroke-linejoin="miter" stroke-miterlimit="10" stroke-dasharray="" stroke-dashoffset="0" style="mix-blend-mode: normal"><path d="M207.5,222.5c0,0 0,-38.24393 0,-57.33334c0,-2.16252 8,-6.41255 8,-8c0,-9.21888 -8,-19.66666 -8,-19.66666h65c0,0 -8.33333,9.26774 -8.33333,19c0,1.26277 8.33333,7.38709 8.33333,9c0,18.39858 0,57 0,57z" fill="#ad8740" stroke="#ffffff" stroke-width="5.5" stroke-linecap="butt"/><path d="M207.5,222.5c0,0 0,-38.24393 0,-57.33334c0,-2.16252 8,-6.41255 8,-8c0,-9.21888 -8,-19.66666 -8,-19.66666h65c0,0 -8.33333,9.26774 -8.33333,19c0,1.26277 8.33333,7.38709 8.33333,9c0,18.39858 0,57 0,57z" fill="#ad8740" stroke="none" stroke-width="0" stroke-linecap="butt"/><path d="M216.5,212.66667v-40.66666h47v40.66666z" fill="#ffffff" stroke="none" stroke-width="0" stroke-linecap="butt"/><path d="M213.5119,159.59523v-6.33333h52.66667v6.33333z" fill="#935226" stroke="none" stroke-width="0" stroke-linecap="butt"/><path d="M229.56655,187.07532l-6.14939,-1.88537" fill="none" stroke="#1e7300" stroke-width="3.5" stroke-linecap="round"/><path d="M231.06726,184.78234l-5.2685,-4.73547" fill="none" stroke="#1e7300" stroke-width="3.5" stroke-linecap="round"/><path d="M233.08241,183.48898l-2.45667,-6.64428" fill="none" stroke="#1e7300" stroke-width="3.5" stroke-linecap="round"/><path d="M250.40015,207.43559c-5.79394,-3.88948 -18.81364,-12.6296 -22.14031,-14.8628c-1.51252,-1.01536 -1.79728,-3.46594 -0.79298,-4.5833c1.2899,-1.4351 4.64453,-5.16734 6.82464,-7.59284c1.16493,-1.29606 3.16344,-0.76463 4.30563,0.65649c2.51497,3.12914 12.37029,15.39116 16.8016,20.90463c1.33612,1.66241 0.74544,4.23691 0.02171,5.00704c-0.73304,0.78004 -3.29725,1.62746 -5.02029,0.47078z" fill="#ff6600" stroke="none" stroke-width="0" stroke-linecap="butt"/></g></g></svg>