<svg version="1.1" xmlns="http://www.w3.org/2000/svg" xmlns:xlink="http://www.w3.org/1999/xlink" width="23.07605" height="31.94176" viewBox="0,0,23.07605,31.94176"><g transform="translate(-228.46197,-163.15412)"><g data-paper-data="{&quot;isPaintingLayer&quot;:true}" fill-rule="nonzero" stroke-linejoin="miter" stroke-miterlimit="10" stroke-dasharray="" stroke-dashoffset="0" style="mix-blend-mode: normal"><path d="M237.72411,172.56113l-3.0724,-5.65066" fill="none" stroke="#1e7300" stroke-width="3.5" stroke-linecap="round"/><path d="M240.40085,171.97382l-0.4484,-7.0697" fill="none" stroke="#1e7300" stroke-width="3.5" stroke-linecap="round"/><path d="M242.74536,172.46052l2.89588,-6.46495" fill="none" stroke="#1e7300" stroke-width="3.5" stroke-linecap="round"/><path d="M230.40073,187.9768c-0.61445,-3.33739 -1.43507,-6.42772 -1.88621,-8.87809c-0.46282,-2.51383 2.21662,-6.29655 4.70272,-6.29655c2.99745,0 8.53535,0 13.42857,0c2.71226,0 5.45259,4.43902 4.79281,7.20088c-0.5499,2.30192 -1.33241,5.345 -2.07303,8.44525c-0.31155,1.30418 -3.24904,5.42782 -6.00538,6.39346c-1.34133,0.46991 -5.81992,0.2437 -7.15372,-0.31546c-2.72699,-1.14321 -5.58643,-5.35817 -5.80576,-6.5495z" fill="#ff0000" stroke="none" stroke-width="0" stroke-linecap="butt"/><path d="M233.70633,190.00743c0,-0.41421 0.33579,-0.75 0.75,-0.75c0.41421,0 0.75,0.33579 0.75,0.75c0,0.41421 -0.33579,0.75 -0.75,0.75c-0.41421,0 -0.75,-0.33579 -0.75,-0.75z" fill="#ffe166" stroke="none" stroke-width="0.5" stroke-linecap="butt"/><path d="M236.48411,191.34076c0,-0.41421 0.33579,-0.75 0.75,-0.75c0.41421,0 0.75,0.33579 0.75,0.75c0,0.41421 -0.33579,0.75 -0.75,0.75c-0.41421,0 -0.75,-0.33579 -0.75,-0.75z" fill="#ffe166" stroke="none" stroke-width="0.5" stroke-linecap="butt"/><path d="M240.03966,191.56299c0,-0.41421 0.33579,-0.75 0.75,-0.75c0.41421,0 0.75,0.33579 0.75,0.75c0,0.41421 -0.33579,0.75 -0.75,0.75c-0.41421,0 -0.75,-0.33579 -0.75,-0.75z" fill="#ffe166" stroke="none" stroke-width="0.5" stroke-linecap="butt"/><path d="M243.92855,189.56299c0,-0.41421 0.33579,-0.75 0.75,-0.75c0.41421,0 0.75,0.33579 0.75,0.75c0,0.41421 -0.33579,0.75 -0.75,0.75c-0.41421,0 -0.75,-0.33579 -0.75,-0.75z" fill="#ffe166" stroke="none" stroke-width="0.5" stroke-linecap="butt"/><path d="M239.37299,187.22965c0,-0.41421 0.33579,-0.75 0.75,-0.75c0.41421,0 0.75,0.33579 0.75,0.75c0,0.41421 -0.33579,0.75 -0.75,0.75c-0.41421,0 -0.75,-0.33579 -0.75,-0.75z" fill="#ffe166" stroke="none" stroke-width="0.5" stroke-linecap="butt"/><path d="M234.92855,186.56299c0,-0.41421 0.33579,-0.75 0.75,-0.75c0.41421,0 0.75,0.33579 0.75,0.75c0,0.41421 -0.33579,0.75 -0.75,0.75c-0.41421,0 -0.75,-0.33579 -0.75,-0.75z" fill="#ffe166" stroke="none" stroke-width="0.5" stroke-linecap="butt"/><path d="M231.48411,183.45188c0,-0.41421 0.33579,-0.75 0.75,-0.75c0.41421,0 0.75,0.33579 0.75,0.75c0,0.41421 -0.33579,0.75 -0.75,0.75c-0.41421,0 -0.75,-0.33579 -0.75,-0.75z" fill="#ffe166" stroke="none" stroke-width="0.5" stroke-linecap="butt"/><path d="M236.48411,182.11854c0,-0.41421 0.33579,-0.75 0.75,-0.75c0.41421,0 0.75,0.33579 0.75,0.75c0,0.41421 -0.33579,0.75 -0.75,0.75c-0.41421,0 -0.75,-0.33579 -0.75,-0.75z" fill="#ffe166" stroke="none" stroke-width="0.5" stroke-linecap="butt"/><path d="M242.37299,184.34076c0,-0.41421 0.33579,-0.75 0.75,-0.75c0.41421,0 0.75,0.33579 0.75,0.75c0,0.41421 -0.33579,0.75 -0.75,0.75c-0.41421,0 -0.75,-0.33579 -0.75,-0.75z" fill="#ffe166" stroke="none" stroke-width="0.5" stroke-linecap="butt"/><path d="M246.26188,183.00743c0,-0.41421 0.33579,-0.75 0.75,-0.75c0.41421,0 0.75,0.33579 0.75,0.75c0,0.41421 -0.33579,0.75 -0.75,0.75c-0.41421,0 -0.75,-0.33579 -0.75,-0.75z" fill="#ffe166" stroke="none" stroke-width="0.5" stroke-linecap="butt"/><path d="M246.81744,186.78521c0,-0.41421 0.33579,-0.75 0.75,-0.75c0.41421,0 0.75,0.33579 0.75,0.75c0,0.41421 -0.33579,0.75 -0.75,0.75c-0.41421,0 -0.75,-0.33579 -0.75,-0.75z" fill="#ffe166" stroke="none" stroke-width="0.5" stroke-linecap="butt"/><path d="M241.92855,179.45188c0,-0.41421 0.33579,-0.75 0.75,-0.75c0.41421,0 0.75,0.33579 0.75,0.75c0,0.41421 -0.33579,0.75 -0.75,0.75c-0.41421,0 -0.75,-0.33579 -0.75,-0.75z" fill="#ffe166" stroke="none" stroke-width="0.5" stroke-linecap="butt"/><path d="M244.92855,177.45188c0,-0.41421 0.33579,-0.75 0.75,-0.75c0.41421,0 0.75,0.33579 0.75,0.75c0,0.41421 -0.33579,0.75 -0.75,0.75c-0.41421,0 -0.75,-0.33579 -0.75,-0.75z" fill="#ffe166" stroke="none" stroke-width="0.5" stroke-linecap="butt"/><path d="M241.81744,175.45188c0,-0.41421 0.33579,-0.75 0.75,-0.75c0.41421,0 0.75,0.33579 0.75,0.75c0,0.41421 -0.33579,0.75 -0.75,0.75c-0.41421,0 -0.75,-0.33579 -0.75,-0.75z" fill="#ffe166" stroke="none" stroke-width="0.5" stroke-linecap="butt"/><path d="M237.59522,178.11854c0,-0.41421 0.33579,-0.75 0.75,-0.75c0.41421,0 0.75,0.33579 0.75,0.75c0,0.41421 -0.33579,0.75 -0.75,0.75c-0.41421,0 -0.75,-0.33579 -0.75,-0.75z" fill="#ffe166" stroke="none" stroke-width="0.5" stroke-linecap="butt"/><path d="M234.03966,175.56299c0,-0.41421 0.33579,-0.75 0.75,-0.75c0.41421,0 0.75,0.33579 0.75,0.75c0,0.41421 -0.33579,0.75 -0.75,0.75c-0.41421,0 -0.75,-0.33579 -0.75,-0.75z" fill="#ffe166" stroke="none" stroke-width="0.5" stroke-linecap="butt"/><path d="M230.37299,178.11854c0,-0.41421 0.33579,-0.75 0.75,-0.75c0.41421,0 0.75,0.33579 0.75,0.75c0,0.41421 -0.33579,0.75 -0.75,0.75c-0.41421,0 -0.75,-0.33579 -0.75,-0.75z" fill="#ffe166" stroke="none" stroke-width="0.5" stroke-linecap="butt"/><path d="M234.15077,179.6741c0,-0.41421 0.33579,-0.75 0.75,-0.75c0.41421,0 0.75,0.33579 0.75,0.75c0,0.41421 -0.33579,0.75 -0.75,0.75c-0.41421,0 -0.75,-0.33579 -0.75,-0.75z" fill="#ffe166" stroke="none" stroke-width="0.5" stroke-linecap="butt"/><path d="M248.81744,178.6741c0,-0.41421 0.33579,-0.75 0.75,-0.75c0.41421,0 0.75,0.33579 0.75,0.75c0,0.41421 -0.33579,0.75 -0.75,0.75c-0.41421,0 -0.75,-0.33579 -0.75,-0.75z" fill="#ffe166" stroke="none" stroke-width="0.5" stroke-linecap="butt"/></g></g></svg>