<svg version="1.1" xmlns="http://www.w3.org/2000/svg" xmlns:xlink="http://www.w3.org/1999/xlink" width="34.52906" height="32.90775" viewBox="0,0,34.52906,32.90775"><g transform="translate(-221.86047,-162.67113)"><g data-paper-data="{&quot;isPaintingLayer&quot;:true}" fill-rule="nonzero" stroke-linejoin="miter" stroke-miterlimit="10" stroke-dasharray="" stroke-dashoffset="0" style="mix-blend-mode: normal"><path d="M229.75986,174.65175l-6.14939,-1.88537" fill="none" stroke="#1e7300" stroke-width="3.5" stroke-linecap="round"/><path d="M231.26057,172.35877l-5.2685,-4.73547" fill="none" stroke="#1e7300" stroke-width="3.5" stroke-linecap="round"/><path d="M233.27572,171.06541l-2.45667,-6.64428" fill="none" stroke="#1e7300" stroke-width="3.5" stroke-linecap="round"/><path d="M250.59346,195.01202c-5.79394,-3.88948 -18.81364,-12.6296 -22.14031,-14.8628c-1.51252,-1.01536 -1.79728,-3.46594 -0.79298,-4.5833c1.2899,-1.4351 4.64453,-5.16734 6.82464,-7.59284c1.16493,-1.29606 3.16344,-0.76463 4.30563,0.65649c2.51497,3.12914 12.37029,15.39116 16.8016,20.90463c1.33612,1.66241 0.74544,4.23691 0.02171,5.00704c-0.73304,0.78004 -3.29725,1.62746 -5.02029,0.47078z" fill="#ff6600" stroke="none" stroke-width="0" stroke-linecap="butt"/></g></g></svg>