<svg version="1.1" xmlns="http://www.w3.org/2000/svg" xmlns:xlink="http://www.w3.org/1999/xlink" width="364.86486" height="395.88589" viewBox="0,0,364.86486,395.88589"><g transform="translate(12.57401,15.51696)"><g data-paper-data="{&quot;isPaintingLayer&quot;:true}" fill-rule="nonzero" stroke="none" stroke-width="0" stroke-linecap="butt" stroke-linejoin="miter" stroke-miterlimit="10" stroke-dasharray="" stroke-dashoffset="0" style="mix-blend-mode: normal"><path d="M-12.574,374.87343v-384.38438h364.86486v384.38439z" fill="#34bb00"/><path d="M-5.0665,374.87343v-390.39039h40.99538v390.39039z" fill="#2c9c00"/><path d="M73.39338,376.87043v-390.39039h40.99538v390.39039z" fill="#2c9c00"/><path d="M151.85322,380.36893v-390.39039h40.99538v390.39039z" fill="#2c9c00"/><path d="M228.99065,377.86142v-390.39039h40.99538v390.39039z" fill="#2c9c00"/><path d="M308.77297,379.85841v-390.39039h40.99538v390.39039z" fill="#2c9c00"/><path d="M13.7487,74.21169v-15l21.32014,-7l21.67986,7v15z" fill="#803500"/><path d="M67.24871,74.21169v-15l21.32014,-7l21.67986,7v15z" fill="#803500"/><path d="M5.56885,68.04502v-5.66667h326.5v5.66667z" fill="#803500"/><path d="M118.74871,74.71169v-15l21.32014,-7l21.67986,7v15z" fill="#803500"/><path d="M172.24871,74.71169v-15l21.32014,-7l21.67986,7v15z" fill="#803500"/><path d="M225.74871,74.71169v-15l21.32014,-7l21.67986,7v15z" fill="#803500"/><path d="M279.24871,74.71169v-15l21.32014,-7l21.67986,7v15z" fill="#803500"/><path d="M17.74871,348.21169v-15l21.32014,-7l21.67986,7v15z" fill="#803500"/><path d="M71.24871,348.21169v-15l21.32014,-7l21.67986,7v15z" fill="#803500"/><path d="M9.56885,342.04503v-5.66667h326.5v5.66667z" fill="#803500"/><path d="M122.74871,348.71169v-15l21.32014,-7l21.67986,7v15z" fill="#803500"/><path d="M176.24871,348.71169v-15l21.32014,-7l21.67986,7v15z" fill="#803500"/><path d="M229.74871,348.71169v-15l21.32014,-7l21.67985,7v15z" fill="#803500"/><path d="M283.2487,348.71169v-15l21.32015,-7l21.67985,7v15z" fill="#803500"/><path d="M6.2487,116.21169v-37h20v37z" fill="#803500"/><path d="M6.24871,164.21169v-37h20v37z" fill="#803500"/><path d="M6.24871,215.21169v-37h20v37z" fill="#803500"/><path d="M6.24871,263.21169v-37h20v37z" fill="#803500"/><path d="M6.24871,315.21169v-37h20v37z" fill="#803500"/><path d="M12.2487,322.21169v-248h8v248z" fill="#803500"/><path d="M315.2487,117.21169v-37h20v37z" fill="#803500"/><path d="M315.2487,165.21169v-37h20v37z" fill="#803500"/><path d="M315.2487,216.21169v-37h20v37z" fill="#803500"/><path d="M315.2487,264.21169v-37h20v37z" fill="#803500"/><path d="M315.2487,316.21169v-37h20v37z" fill="#803500"/><path d="M321.2487,323.21169v-248h8v248z" fill="#803500"/></g></g></svg>