<svg version="1.1" xmlns="http://www.w3.org/2000/svg" xmlns:xlink="http://www.w3.org/1999/xlink" width="25.41666" height="28.91882" viewBox="0,0,25.41666,28.91882"><g transform="translate(-227.29167,-165.5406)"><g data-paper-data="{&quot;isPaintingLayer&quot;:true}" fill-rule="nonzero" stroke-linejoin="miter" stroke-miterlimit="10" stroke-dasharray="" stroke-dashoffset="0" style="mix-blend-mode: normal"><g><path d="M248.79166,182.37609c0,4.39653 -1.73114,9.23698 -4.92708,11.30231c-0.84746,0.54766 -2.21943,0.10245 -3.61431,0.11216c-1.21925,0.00848 -2.456,0.50219 -3.37527,0.50219c-5.93706,0 -9.58333,-5.33528 -9.58333,-11.91667c0,-6.58139 2.81294,-11.58333 8.75,-11.58333c1.09311,0 2.83126,0.2538 4.18506,0.50195c0.50006,0.09165 1.0511,0.11835 1.58653,0.1563c0.7487,0.05307 1.46687,0.12813 1.9724,0.43358c3.47027,2.09674 5.00601,6.19529 5.00601,10.4915z" fill="#6800ba" stroke="none" stroke-width="0" stroke-linecap="butt"/><path d="M238.41667,172.41775c0,0 0.37369,-2.84801 0.80449,-3.89423c0.28073,-0.68178 1.52885,-1.77244 1.52885,-1.77244" fill="none" stroke="#5a2c00" stroke-width="2" stroke-linecap="round"/><path d="M251.53071,167.6947c0.68539,2.39504 -2.31399,3.99388 -4.15902,4.45071c-2.16518,0.5361 -8.66421,-0.90959 -8.66421,-0.90959c0,0 4.28333,-4.70429 6.87412,-5.34576c2.5908,-0.64147 5.26372,-0.59039 5.94911,1.80465z" fill="#21cc00" stroke="none" stroke-width="0" stroke-linecap="butt"/><path d="M242.70833,194.45941c-5.93706,0 -10.75,-4.83527 -10.75,-11.41666c0,-4.26342 1.51971,-8.6304 4.55636,-10.88415c1.651,-1.22534 4.1026,-1.53252 6.19364,-1.53252c5.93706,0 10,5.33528 10,11.91667c0,6.58139 -4.06294,11.91666 -10,11.91666z" fill="#7600d7" stroke="none" stroke-width="0" stroke-linecap="butt"/></g></g></g></svg>