<svg version="1.1" xmlns="http://www.w3.org/2000/svg" xmlns:xlink="http://www.w3.org/1999/xlink" width="76.74027" height="90.5" viewBox="0,0,76.74027,90.5"><g transform="translate(-201.93069,-134.75)"><g data-paper-data="{&quot;isPaintingLayer&quot;:true}" fill-rule="nonzero" stroke-linejoin="miter" stroke-miterlimit="10" stroke-dasharray="" stroke-dashoffset="0" style="mix-blend-mode: normal"><path d="M207.5,222.5c0,0 0,-38.24393 0,-57.33334c0,-2.16252 8,-6.41255 8,-8c0,-9.21888 -8,-19.66666 -8,-19.66666h65c0,0 -8.33333,9.26774 -8.33333,19c0,1.26277 8.33333,7.38709 8.33333,9c0,18.39858 0,57 0,57z" fill="#ad8740" stroke="#ffffff" stroke-width="5.5" stroke-linecap="butt"/><path d="M207.5,222.5c0,0 0,-38.24393 0,-57.33334c0,-2.16252 8,-6.41255 8,-8c0,-9.21888 -8,-19.66666 -8,-19.66666h65c0,0 -8.33333,9.26774 -8.33333,19c0,1.26277 8.33333,7.38709 8.33333,9c0,18.39858 0,57 0,57z" fill="#ad8740" stroke="none" stroke-width="0" stroke-linecap="butt"/><path d="M216.5,212.66667v-40.66666h47v40.66666z" fill="#ffffff" stroke="none" stroke-width="0" stroke-linecap="butt"/><path d="M213.5119,159.59523v-6.33333h52.66667v6.33333z" fill="#935226" stroke="none" stroke-width="0" stroke-linecap="butt"/><path d="M240.10127,210.4375c-2.60063,0 -4.70886,-2.25197 -4.70886,-5.02992c0,-2.77795 2.10823,-5.02992 4.70886,-5.02992c2.60063,0 4.70886,2.25197 4.70886,5.02992c0,2.77795 -2.10823,5.02992 -4.70886,5.02992z" fill="#8a00ba" stroke="none" stroke-width="0" stroke-linecap="butt"/><path d="M235.74684,204.86788c-2.60063,0 -4.70886,-2.25197 -4.70886,-5.02992c0,-2.77795 2.10823,-5.02992 4.70886,-5.02992c2.60063,0 4.70886,2.25197 4.70886,5.02992c0,2.77795 -2.10823,5.02992 -4.70886,5.02992z" fill="#74009b" stroke="none" stroke-width="0" stroke-linecap="butt"/><path d="M243.74684,204.96915c-2.60063,0 -4.70886,-2.25197 -4.70886,-5.02992c0,-2.77795 2.10823,-5.02992 4.70886,-5.02992c2.60063,0 4.70886,2.25197 4.70886,5.02992c0,2.77795 -2.10823,5.02992 -4.70886,5.02992z" fill="#9935ba" stroke="none" stroke-width="0" stroke-linecap="butt"/><path d="M236.05064,191.80459c-2.60063,0 -4.70886,-2.25197 -4.70886,-5.02992c0,-2.77795 2.10823,-5.02992 4.70886,-5.02992c2.60063,0 4.70886,2.25197 4.70886,5.02992c0,2.77795 -2.10823,5.02992 -4.70886,5.02992z" fill="#a326cd" stroke="none" stroke-width="0" stroke-linecap="butt"/><path d="M239.7102,184.26315c0,0 -0.14605,-2.49079 0.42216,-3.71885c0.69697,-1.50636 2.82784,-4.65615 2.82784,-4.65615" fill="none" stroke="#9a5200" stroke-width="2" stroke-linecap="round"/><path d="M227.5852,182.38815c0,0 0.40627,-1.06827 0.27579,-1.63098c-0.16639,-0.71757 -1.19286,-2.32392 -1.19286,-2.32392c0,0 2.29545,-0.52236 3.08343,-1.04363c0.80884,-0.53507 1.70865,-2.12647 1.70865,-2.12647c0,0 2.46939,1.47406 4.00338,1.72973c1.6991,0.28318 5.74662,-0.10473 5.74662,-0.10473c0,0 -1.87691,1.6424 -2.54855,2.59061c-0.73864,1.04279 -1.70145,3.40939 -1.70145,3.40939c0,0 -3.28769,-0.67534 -4.88112,-0.76033c-1.52891,-0.08154 -4.49388,0.26033 -4.49388,0.26033z" fill="#00a541" stroke="none" stroke-width="0" stroke-linecap="butt"/><path d="M249.02793,186.88976c-1.58602,-0.17537 -4.93978,-0.04387 -4.93978,-0.04387c0,0 -0.56498,-2.4917 -1.12413,-3.64077c-0.50844,-1.04484 -2.09316,-2.9707 -2.09316,-2.9707c0,0 3.93049,1.04121 5.65303,1.03821c1.55515,-0.00271 4.23144,-1.05541 4.23144,-1.05541c0,0 0.62893,1.71658 1.33995,2.37611c0.69268,0.64252 2.87257,1.53135 2.87257,1.53135c0,0 -1.27412,1.41796 -1.55503,2.0989c-0.22029,0.53399 0.00679,1.65412 0.00679,1.65412c0,0 -2.86986,-0.81966 -4.39167,-0.98793z" data-paper-data="{&quot;index&quot;:null}" fill="#00a541" stroke="none" stroke-width="0" stroke-linecap="butt"/><path d="M250.845,180.30112c-1.48638,0.58041 -4.39642,2.25276 -4.39642,2.25276c0,0 -1.65643,-1.94526 -2.68484,-2.70379c-0.93513,-0.68973 -3.23243,-1.66065 -3.23243,-1.66065c0,0 3.96498,-0.90101 5.48955,-1.70277c1.37642,-0.72384 3.25894,-2.89798 3.25894,-2.89798c0,0 1.3535,1.22893 2.28934,1.48334c0.9117,0.24785 3.25517,0.02398 3.25517,0.02398c0,0 -0.47091,1.84722 -0.40387,2.58077c0.05257,0.57524 0.77338,1.4622 0.77338,1.4622c0,0 -2.92261,0.60524 -4.34881,1.16215z" data-paper-data="{&quot;index&quot;:null}" fill="#00a541" stroke="none" stroke-width="0" stroke-linecap="butt"/><path d="M244.05064,191.90585c-2.60063,0 -4.70886,-2.25197 -4.70886,-5.02992c0,-2.77795 2.10823,-5.02992 4.70886,-5.02992c2.60063,0 4.70886,2.25197 4.70886,5.02992c0,2.77795 -2.10823,5.02992 -4.70886,5.02992z" fill="#74009b" stroke="none" stroke-width="0" stroke-linecap="butt"/><path d="M232.70887,198.2856c-2.60063,0 -4.70886,-2.25197 -4.70886,-5.02992c0,-2.77795 2.10823,-5.02992 4.70886,-5.02992c2.60063,0 4.70886,2.25197 4.70886,5.02992c0,2.77795 -2.10823,5.02992 -4.70886,5.02992z" fill="#9935ba" stroke="none" stroke-width="0" stroke-linecap="butt"/><path d="M239.69621,197.88054c-2.60063,0 -4.70886,-2.25197 -4.70886,-5.02992c0,-2.77795 2.10823,-5.02992 4.70886,-5.02992c2.60063,0 4.70886,2.25197 4.70886,5.02992c0,2.77795 -2.10823,5.02992 -4.70886,5.02992z" fill="#8a00ba" stroke="none" stroke-width="0" stroke-linecap="butt"/><path d="M247.29114,198.38687c-2.60063,0 -4.70886,-2.25197 -4.70886,-5.02992c0,-2.77795 2.10823,-5.02992 4.70886,-5.02992c2.60063,0 4.70886,2.25197 4.70886,5.02992c0,2.77795 -2.10823,5.02992 -4.70886,5.02992z" fill="#a326cd" stroke="none" stroke-width="0" stroke-linecap="butt"/></g></g></svg>