<svg version="1.1" xmlns="http://www.w3.org/2000/svg" xmlns:xlink="http://www.w3.org/1999/xlink" width="76.74027" height="90.5" viewBox="0,0,76.74027,90.5"><g transform="translate(-201.93069,-134.75)"><g data-paper-data="{&quot;isPaintingLayer&quot;:true}" fill-rule="nonzero" stroke-linejoin="miter" stroke-miterlimit="10" stroke-dasharray="" stroke-dashoffset="0" style="mix-blend-mode: normal"><path d="M207.5,222.5c0,0 0,-38.24393 0,-57.33334c0,-2.16252 8,-6.41255 8,-8c0,-9.21888 -8,-19.66666 -8,-19.66666h65c0,0 -8.33333,9.26774 -8.33333,19c0,1.26277 8.33333,7.38709 8.33333,9c0,18.39858 0,57 0,57z" fill="#ad8740" stroke="#ffffff" stroke-width="5.5" stroke-linecap="butt"/><path d="M207.5,222.5c0,0 0,-38.24393 0,-57.33334c0,-2.16252 8,-6.41255 8,-8c0,-9.21888 -8,-19.66666 -8,-19.66666h65c0,0 -8.33333,9.26774 -8.33333,19c0,1.26277 8.33333,7.38709 8.33333,9c0,18.39858 0,57 0,57z" fill="#ad8740" stroke="none" stroke-width="0" stroke-linecap="butt"/><path d="M216.5,212.66667v-40.66666h47v40.66666z" fill="#ffffff" stroke="none" stroke-width="0" stroke-linecap="butt"/><path d="M213.5119,159.59523v-6.33333h52.66667v6.33333z" fill="#935226" stroke="none" stroke-width="0" stroke-linecap="butt"/><path d="M242.25,196.25c0,-4.86701 -3.69365,-8.8125 -8.25,-8.8125c-4.55635,0 -8.25,3.94549 -8.25,8.8125c0,4.86701 3.69365,8.8125 8.25,8.8125c4.55635,0 8.25,-3.94549 8.25,-8.8125z" fill="#d80000" stroke="none" stroke-width="0" stroke-linecap="butt"/><path d="M254.25,201c0,-4.86701 -3.69365,-8.8125 -8.25,-8.8125c-4.55635,0 -8.25,3.94549 -8.25,8.8125c0,4.86701 3.69365,8.8125 8.25,8.8125c4.55635,0 8.25,-3.94549 8.25,-8.8125z" fill="#ba0000" stroke="none" stroke-width="0" stroke-linecap="butt"/><path d="M246.125,194.0625c0,0 -0.74143,-5.34811 -0.61477,-8.02904c0.12325,-2.60876 1.36477,-7.84596 1.36477,-7.84596c0,0 -4.53956,3.72129 -6.30761,5.71289c-1.85297,2.08725 -4.56739,6.53711 -4.56739,6.53711" fill="none" stroke="#70e410" stroke-width="2.5" stroke-linecap="round"/><path d="M248.375,177.25c0,-1.00102 -0.67157,-1.8125 -1.5,-1.8125c-0.82843,0 -1.5,0.81148 -1.5,1.8125c0,1.00102 0.67157,1.8125 1.5,1.8125c0.82843,0 1.5,-0.81148 1.5,-1.8125z" fill="none" stroke="#70e410" stroke-width="2.5" stroke-linecap="butt"/><path d="M225.875,182.9375c-0.87677,-3.66703 3.76488,-5.88471 6.58506,-6.45253c3.30952,-0.66635 13.03994,1.95253 13.03994,1.95253c0,0 -6.78991,6.82767 -10.75,7.625c-3.96009,0.79733 -7.99823,0.54203 -8.875,-3.125z" fill="#21cc00" stroke="none" stroke-width="0" stroke-linecap="butt"/></g></g></svg>