<svg version="1.1" xmlns="http://www.w3.org/2000/svg" xmlns:xlink="http://www.w3.org/1999/xlink" width="76.74027" height="90.5" viewBox="0,0,76.74027,90.5"><g transform="translate(-201.9307,-134.75)"><g data-paper-data="{&quot;isPaintingLayer&quot;:true}" fill-rule="nonzero" stroke-linecap="butt" stroke-linejoin="miter" stroke-miterlimit="10" stroke-dasharray="" stroke-dashoffset="0" style="mix-blend-mode: normal"><path d="M207.50001,222.5c0,0 0,-38.24393 0,-57.33334c0,-2.16252 8,-6.41255 8,-8c0,-9.21888 -8,-19.66666 -8,-19.66666h65c0,0 -8.33333,9.26774 -8.33333,19c0,1.26277 8.33333,7.38709 8.33333,9c0,18.39858 0,57 0,57z" fill="#ad8740" stroke="#ffffff" stroke-width="5.5"/><path d="M207.50001,222.5c0,0 0,-38.24393 0,-57.33334c0,-2.16252 8,-6.41255 8,-8c0,-9.21888 -8,-19.66666 -8,-19.66666h65c0,0 -8.33333,9.26774 -8.33333,19c0,1.26277 8.33333,7.38709 8.33333,9c0,18.39858 0,57 0,57z" fill="#ad8740" stroke="none" stroke-width="0"/><path d="M216.50001,212.66667v-40.66666h47v40.66666z" fill="#ffffff" stroke="none" stroke-width="0"/><path d="M213.51191,159.59523v-6.33333h52.66667v6.33333z" fill="#935226" stroke="none" stroke-width="0"/><path d="M224.78553,203.74446l23.57173,-19.24178l-21.14124,21.6186z" fill="#2c9c00" stroke="none" stroke-width="NaN"/><path d="M233.7412,198.97241l7.69124,-8.42622l12.8499,-11.37591c0,0 1.4027,4.63552 0.76666,9.02523c-0.37203,2.56763 -1.96082,5.02126 -3.56064,6.49311c-1.5025,1.38231 -4.44754,2.93425 -7.19459,3.57081c-5.17858,1.2 -10.55257,0.71299 -10.55257,0.71299z" fill="#2c9c00" stroke="none" stroke-width="0"/><path d="M254.2763,179.12762l-4.88509,4.75273l-17.89214,11.86387c0,0 0.41622,-4.19515 2.40868,-7.80267c1.24756,-2.25882 4.10101,-4.36325 4.79729,-4.82783c0.81774,-0.54563 4.08311,-2.23997 7.63832,-3.07256c3.82835,-0.89656 7.93294,-0.91354 7.93294,-0.91354z" data-paper-data="{&quot;index&quot;:null}" fill="#2c9c00" stroke="none" stroke-width="0"/></g></g></svg>