<svg version="1.1" xmlns="http://www.w3.org/2000/svg" xmlns:xlink="http://www.w3.org/1999/xlink" width="28.5" height="35.625" viewBox="0,0,28.5,35.625"><g transform="translate(-225.75,-161.5625)"><g data-paper-data="{&quot;isPaintingLayer&quot;:true}" fill-rule="nonzero" stroke-linejoin="miter" stroke-miterlimit="10" stroke-dasharray="" stroke-dashoffset="0" style="mix-blend-mode: normal"><path d="M234,192.4375c-4.55635,0 -8.25,-3.94549 -8.25,-8.8125c0,-4.86701 3.69365,-8.8125 8.25,-8.8125c4.55635,0 8.25,3.94549 8.25,8.8125c0,4.86701 -3.69365,8.8125 -8.25,8.8125z" fill="#d80000" stroke="none" stroke-width="0" stroke-linecap="butt"/><path d="M246,197.1875c-4.55635,0 -8.25,-3.94549 -8.25,-8.8125c0,-4.86701 3.69365,-8.8125 8.25,-8.8125c4.55635,0 8.25,3.94549 8.25,8.8125c0,4.86701 -3.69365,8.8125 -8.25,8.8125z" fill="#ba0000" stroke="none" stroke-width="0" stroke-linecap="butt"/><path d="M236,177.8125c0,0 2.71442,-4.44986 4.56739,-6.53711c1.76805,-1.9916 6.30761,-5.71289 6.30761,-5.71289c0,0 -1.24152,5.2372 -1.36477,7.84596c-0.12666,2.68093 0.61477,8.02904 0.61477,8.02904" fill="none" stroke="#70e410" stroke-width="2.5" stroke-linecap="round"/><path d="M246.875,166.4375c-0.82843,0 -1.5,-0.81148 -1.5,-1.8125c0,-1.00102 0.67157,-1.8125 1.5,-1.8125c0.82843,0 1.5,0.81148 1.5,1.8125c0,1.00102 -0.67157,1.8125 -1.5,1.8125z" fill="none" stroke="#70e410" stroke-width="2.5" stroke-linecap="butt"/><path d="M225.875,170.3125c-0.87677,-3.66703 3.76488,-5.88471 6.58506,-6.45253c3.30952,-0.66635 13.03994,1.95253 13.03994,1.95253c0,0 -6.78991,6.82767 -10.75,7.625c-3.96009,0.79733 -7.99823,0.54203 -8.875,-3.125z" fill="#21cc00" stroke="none" stroke-width="0" stroke-linecap="butt"/></g></g></svg>