<svg version="1.1" xmlns="http://www.w3.org/2000/svg" xmlns:xlink="http://www.w3.org/1999/xlink" width="76.74027" height="90.5" viewBox="0,0,76.74027,90.5"><g transform="translate(-201.93069,-134.75)"><g data-paper-data="{&quot;isPaintingLayer&quot;:true}" fill-rule="nonzero" stroke-linejoin="miter" stroke-miterlimit="10" stroke-dasharray="" stroke-dashoffset="0" style="mix-blend-mode: normal"><path d="M207.5,222.5c0,0 0,-38.24393 0,-57.33334c0,-2.16252 8,-6.41255 8,-8c0,-9.21888 -8,-19.66666 -8,-19.66666h65c0,0 -8.33333,9.26774 -8.33333,19c0,1.26277 8.33333,7.38709 8.33333,9c0,18.39858 0,57 0,57z" fill="#ad8740" stroke="#ffffff" stroke-width="5.5" stroke-linecap="butt"/><path d="M207.5,222.5c0,0 0,-38.24393 0,-57.33334c0,-2.16252 8,-6.41255 8,-8c0,-9.21888 -8,-19.66666 -8,-19.66666h65c0,0 -8.33333,9.26774 -8.33333,19c0,1.26277 8.33333,7.38709 8.33333,9c0,18.39858 0,57 0,57z" fill="#ad8740" stroke="none" stroke-width="0" stroke-linecap="butt"/><path d="M216.5,212.66667v-40.66666h47v40.66666z" fill="#ffffff" stroke="none" stroke-width="0" stroke-linecap="butt"/><path d="M213.5119,159.59523v-6.33333h52.66667v6.33333z" fill="#935226" stroke="none" stroke-width="0" stroke-linecap="butt"/><path d="M252.12594,179.26613c0.68539,2.39504 -2.31399,3.99388 -4.15902,4.45071c-2.16518,0.5361 -8.66421,-0.90959 -8.66421,-0.90959c0,0 4.28333,-4.70429 6.87412,-5.34576c2.5908,-0.64147 5.26372,-0.59039 5.94911,1.80465z" fill="#21cc00" stroke="none" stroke-width="0" stroke-linecap="butt"/><path d="M240.50151,206.88798c-7.93992,0 -14.37651,-4.83527 -14.37651,-11.41666c0,-4.26342 2.03238,-8.6304 6.09345,-10.88415c2.20796,-1.22534 5.48661,-0.24681 8.28306,-0.24681c1.88946,0 3.63699,-0.98358 5.20314,-0.43442c5.01514,1.75854 8.17036,6.05015 8.17036,11.06537c0,6.58139 -5.43357,11.91666 -13.37349,11.91666z" fill="#f11700" stroke="none" stroke-width="0" stroke-linecap="butt"/><path d="M239.01191,183.98918c0,0 0.37369,-2.84801 0.80449,-3.89423c0.28073,-0.68178 1.52885,-1.77244 1.52885,-1.77244" fill="none" stroke="#5a2c00" stroke-width="2" stroke-linecap="round"/></g></g></svg>