<svg version="1.1" xmlns="http://www.w3.org/2000/svg" xmlns:xlink="http://www.w3.org/1999/xlink" width="520" height="443" viewBox="0,0,520,443"><g transform="translate(29.2143,26.2143)"><g data-paper-data="{&quot;isPaintingLayer&quot;:true}" fill-rule="nonzero" stroke="none" stroke-width="0" stroke-linecap="butt" stroke-linejoin="miter" stroke-miterlimit="10" stroke-dasharray="" stroke-dashoffset="0" style="mix-blend-mode: normal"><path d="M-29.21429,111.78571v-138h515v138z" fill="#5c6b92"/><path d="M-21.21429,347.78571v-164h512v164z" fill="#1d2740"/><path d="M-14.21429,416.78571v-166c0,0 140.83747,-11.77298 211.95995,-1.71673c16.76967,2.37112 35.5906,15.07495 27.61457,31.51024c-7.68921,15.84427 -42.33098,35.36834 -19.8067,41.28205c76.64203,20.12225 279.23219,-3.07556 279.23219,-3.07556l-2,98z" fill="#bfa700"/><path d="M-5.21429,205.78571v-49h492l-2,106c0,0 -121.93406,10.61885 -180.00317,8.07226c-30.78492,-1.35005 12.87046,-19.95919 2.76662,-42.85061c-11.80087,-26.73622 -96.18092,-33.22164 -121.76345,-33.22164c-71.34589,0 -191,11 -191,11z" fill="#bfa700"/><path d="M-5.21429,207.78571l-1,-12c0,0 160.86229,-12.17968 242.01464,-2.1181c18.93854,2.34807 64.19919,14.94866 74.3208,34.38077c6.87335,13.1959 -24.01171,34.39181 -6.84967,38.8797c20.99664,5.49064 46.4034,3.62957 71.50256,2.57883c56.27912,-2.35604 111.01167,-12.7212 111.01167,-12.7212l-3,12c0,0 -25.59955,3.03648 -58.04371,6.60225c-37.9893,4.1752 -86.10491,8.33399 -124.65975,-1.97008c-19.88946,-5.31561 5.60769,-29.69813 -3.23657,-44.83572c-9.83582,-16.83471 -53.62031,-24.36649 -69.98304,-26.41184c-78.32036,-9.79005 -232.07692,5.61538 -232.07692,5.61538z" fill="#4f4500"/><path d="M-4.21429,166.78571v-147l139,60l0.59713,-60.52672l151.39903,70.06713l0.44938,-70.27823l121.55573,74.39999l-3.8041,-84.47956l57.71646,1.87563l1.83901,86.45959l17.24736,2.48218l2,67z" fill="#000000"/><path d="M87.78571,334.78571l17,-236v182l17,54z" fill="#8a4100"/><path d="M98.78571,246.78571l2,-12l35.61696,-20.46085l39.38304,-54.53915l-30,59z" fill="#8a4100"/><path d="M55.20598,255.17775l-9.17624,-65.54995l19.50005,64.38394l27.02416,30.93394l-2.01226,11.99795z" data-paper-data="{&quot;index&quot;:null}" fill="#8a4100"/><path d="M383.78571,224.78571l17,-236v182l17,54z" fill="#8a4100"/><path d="M394.78571,136.78571l2,-12l35.61696,-20.46085l39.38304,-54.53915l-30,59z" fill="#8a4100"/><path d="M351.20598,145.17774l-9.17624,-65.54995l19.50005,64.38394l27.02416,30.93394l-2.01227,11.99795z" data-paper-data="{&quot;index&quot;:null}" fill="#8a4100"/><path d="M307.78571,193.78571l8,-48l12,48z" fill="#695b00"/><path d="M320.78571,197.78571l8,-48l12,48z" fill="#695b00"/><path d="M335.78571,198.78571l8,-48l12,48z" fill="#695b00"/><path d="M133.78571,292.78571l8,-48l12,48z" fill="#695b00"/><path d="M122.78571,294.78571l8,-48l12,48z" fill="#695b00"/><path d="M145.78571,295.78571l8,-48l12,48z" fill="#695b00"/><path d="M19.78571,344.78571l8,-48l12,48z" fill="#695b00"/><path d="M8.78571,346.78571l8,-48l12,48z" fill="#695b00"/><path d="M31.78571,347.78571l8,-48l12,48z" fill="#695b00"/><path d="M202.78571,350.78571l8,-48l12,48z" fill="#695b00"/><path d="M191.78571,352.78571l8,-48l12,48z" fill="#695b00"/><path d="M214.78571,353.78571l8,-48l12,48z" fill="#695b00"/><path d="M445.78571,249.78571l8,-48l12,48z" fill="#695b00"/><path d="M434.78571,251.78571l8,-48l12,48z" fill="#695b00"/><path d="M457.78571,252.78571l8,-48l12,48z" fill="#695b00"/></g></g></svg>