<svg version="1.1" xmlns="http://www.w3.org/2000/svg" xmlns:xlink="http://www.w3.org/1999/xlink" width="718.88677" height="523.8323" viewBox="0,0,718.88677,523.8323"><defs><radialGradient cx="47.5074" cy="7.17014" r="121" gradientUnits="userSpaceOnUse" id="color-1"><stop offset="0" stop-color="#ffe16b"/><stop offset="1" stop-color="#ffe16b" stop-opacity="0"/></radialGradient></defs><g transform="translate(119.44334,113.82986)"><g data-paper-data="{&quot;isPaintingLayer&quot;:true}" fill-rule="nonzero" stroke-linejoin="miter" stroke-miterlimit="10" stroke-dasharray="" stroke-dashoffset="0" style="mix-blend-mode: normal"><path d="M-11.21425,79.25719v-85h497v85z" fill="#87d8ff" stroke="none" stroke-width="0" stroke-linecap="butt"/><path d="M-73.4926,7.17014c0,-66.82645 54.17355,-121 121,-121c66.82645,0 121,54.17355 121,121c0,66.82645 -54.17355,121 -121,121c-66.82645,0 -121,-54.17355 -121,-121z" fill="url(#color-1)" stroke="none" stroke-width="0" stroke-linecap="butt"/><g fill="#000000" stroke="none" stroke-linecap="butt"><path d="M280.28357,92.39678v-59.23512h135.54709v59.23512z" stroke-width="NaN"/><path d="M280.16936,38.38386v-28.28344l62.43705,28.28344z" stroke-width="0"/><path d="M351.48784,36.05868v-28.28344l62.43705,28.28344z" stroke-width="0"/><path d="M313.94176,37.46903v-28.28344l62.43705,28.28344z" stroke-width="0"/><path d="M386.30858,40.63284v-50.16307h25.08156v50.16307z" stroke-width="0"/></g><path d="M-0.4926,5.17014c0,-25.95738 21.04262,-47 47,-47c25.95738,0 47,21.04262 47,47c0,25.95738 -21.04262,47 -47,47c-25.95738,0 -47,-21.04262 -47,-47z" fill="#ffe16b" stroke="none" stroke-width="NaN" stroke-linecap="butt"/><path d="M-119.44334,360.33561l100.966,-284.28664h528.28739l89.63338,284.28664z" fill="#34bb00" stroke="none" stroke-width="0" stroke-linecap="butt"/><path d="M-104.65145,360.33561l162.91579,-291.77854h34.42574l-116.56905,291.77855z" fill="#2c9c00" stroke="none" stroke-width="0" stroke-linecap="butt"/><path d="M49.93666,361.82818l95.50236,-291.77854h34.42574l-37.92005,291.77855z" fill="#2c9c00" stroke="none" stroke-width="0" stroke-linecap="butt"/><path d="M204.52473,364.44302l16.85335,-291.77854h40.04353l23.87559,291.77855z" fill="#2c9c00" stroke="none" stroke-width="0" stroke-linecap="butt"/><path d="M356.50726,362.56886l-54.77341,-291.77854h51.2791l84.26678,291.77854z" fill="#2c9c00" stroke="none" stroke-width="0" stroke-linecap="butt"/><path d="M513.70089,364.06143l-116.56905,-291.77854h40.04352l157.298,291.77854z" fill="#2c9c00" stroke="none" stroke-width="0" stroke-linecap="butt"/><path d="M-29.49256,77.17015v-8h539v8z" fill="#7d2e00" stroke="none" stroke-width="0" stroke-linecap="butt"/><path d="M41.48005,35.97789v-12.01201h412.91291v12.01201z" fill="#7d2e00" stroke="none" stroke-width="0" stroke-linecap="butt"/><path d="M55.78573,74.25719v-63l16,-11l16,13v61z" fill="#7d2e00" stroke="none" stroke-width="0" stroke-linecap="butt"/><path d="M105.78573,75.25719v-63l16,-11l16,13v61z" fill="#7d2e00" stroke="none" stroke-width="0" stroke-linecap="butt"/><path d="M155.78573,74.25719v-63l16,-11l16,13v61z" fill="#7d2e00" stroke="none" stroke-width="0" stroke-linecap="butt"/><path d="M205.78576,75.25719v-63l16,-11l16,13v61z" fill="#7d2e00" stroke="none" stroke-width="0" stroke-linecap="butt"/><path d="M265.54955,92.34527l-18.79026,-60.13257l11.99093,-15.27147l19.14912,7.63618l18.19374,58.2236z" fill="#7d2e00" stroke="none" stroke-width="0" stroke-linecap="butt"/><path d="M328.27706,70.26105l51.70887,-35.98878l18.16854,6.84866l-1.53008,20.55867l-50.06732,34.84628z" fill="#7d2e00" stroke="none" stroke-width="0" stroke-linecap="butt"/><path d="M403.78574,79.25719v-63l16,-11l16,13v61z" fill="#7d2e00" stroke="none" stroke-width="0" stroke-linecap="butt"/><path d="M-73.42986,244.22624l-0.26248,-24.38546l115.8514,-203.04136l0.26248,24.38546z" fill="#7d2e00" stroke="none" stroke-width="0" stroke-linecap="butt"/><path d="M-68.57964,314.90214l-1.37666,-127.8957l4.24877,-30.19866l4.77321,18.52351l1.33296,123.83551z" fill="#7d2e00" stroke="none" stroke-width="0" stroke-linecap="butt"/><path d="M-54.52922,292.34576l-1.37666,-127.8957l4.24877,-30.19866l4.77321,18.52351l1.33296,123.83552z" fill="#7d2e00" stroke="none" stroke-width="0" stroke-linecap="butt"/><path d="M-40.52255,265.7292l-1.37666,-127.8957l4.24877,-30.19866l4.77321,18.52351l1.33296,123.83552z" fill="#7d2e00" stroke="none" stroke-width="0" stroke-linecap="butt"/><path d="M-26.47213,243.17286l-1.37666,-127.8957l4.24877,-30.19866l4.77321,18.52351l1.33296,123.83552z" fill="#7d2e00" stroke="none" stroke-width="0" stroke-linecap="butt"/><path d="M-12.65859,225.16839l-1.37666,-127.89569l4.24877,-30.19866l4.77321,18.5235l1.33296,123.83552z" fill="#7d2e00" stroke="none" stroke-width="0" stroke-linecap="butt"/><path d="M1.39182,202.61207l-1.37666,-127.8957l4.24877,-30.19866l4.77321,18.5235l1.33296,123.83552z" fill="#7d2e00" stroke="none" stroke-width="0" stroke-linecap="butt"/><path d="M15.11793,176.48725l-1.37666,-127.8957l4.24877,-30.19866l4.77321,18.5235l1.33296,123.83552z" fill="#7d2e00" stroke="none" stroke-width="0" stroke-linecap="butt"/><path d="M29.16834,153.93083l-1.37666,-127.8957l4.24877,-30.19866l4.77321,18.52351l1.33296,123.83551z" fill="#7d2e00" stroke="none" stroke-width="0" stroke-linecap="butt"/><g fill="#7d2e00" stroke="none" stroke-width="0" stroke-linecap="butt"><path d="M441.81819,35.67438l0.26248,-24.38546l115.8514,203.04136l-0.26248,24.38546z" data-paper-data="{&quot;index&quot;:null}"/><path d="M543.84106,293.6563l1.33296,-123.83552l4.77321,-18.52351l4.24876,30.19866l-1.37666,127.89571z" data-paper-data="{&quot;index&quot;:null}"/><path d="M529.79068,271.09993l1.33296,-123.83553l4.7732,-18.52351l4.24877,30.19867l-1.37666,127.8957z" data-paper-data="{&quot;index&quot;:null}"/><path d="M515.78397,244.4834l1.33296,-123.83552l4.7732,-18.52351l4.24877,30.19866l-1.37666,127.8957z" data-paper-data="{&quot;index&quot;:null}"/><path d="M501.73358,221.92699l1.33296,-123.83552l4.77321,-18.52351l4.24877,30.19866l-1.37666,127.89571z" data-paper-data="{&quot;index&quot;:null}"/><path d="M487.92004,203.9226l1.33296,-123.83553l4.77321,-18.5235l4.24876,30.19866l-1.37666,127.8957z" data-paper-data="{&quot;index&quot;:null}"/><path d="M473.86962,181.36619l1.33296,-123.83552l4.77321,-18.5235l4.24877,30.19866l-1.37666,127.8957z" data-paper-data="{&quot;index&quot;:null}"/><path d="M460.14349,155.24132l1.33296,-123.83552l4.77321,-18.5235l4.24877,30.19867l-1.37666,127.8957z" data-paper-data="{&quot;index&quot;:null}"/><path d="M446.0931,132.68496l1.33295,-123.83551l4.77321,-18.52351l4.24877,30.19867l-1.37667,127.8957z" data-paper-data="{&quot;index&quot;:null}"/></g><g stroke="none" stroke-linecap="butt"><path d="M61.3424,250.09695l-10.36379,-12.11554l13.34077,2.07911l11.39436,-5.04619l12.70256,5.55705l13.19682,-1.8482l-11.54821,11.37377z" fill="#0023af" stroke-width="0"/><path d="M76.07787,294.98569c-17.75061,0 -32.14034,-11.41531 -32.14034,-25.49681c0,-14.0815 14.38973,-25.49681 32.14034,-25.49681c17.75061,0 32.14034,11.41531 32.14034,25.49681c0,14.0815 -14.38973,25.49681 -32.14034,25.49681z" fill="#002bd6" stroke-width="NaN"/></g><g stroke="none" stroke-linecap="butt"><path d="M326.69888,224.07303l-7.59879,-8.88319l9.78153,1.52442l8.35441,-3.6999l9.3136,4.07447l9.67599,-1.35512l-8.46722,8.33932z" fill="#0023af" stroke-width="0"/><path d="M337.50303,256.98569c-13.01486,0 -23.56549,-8.36977 -23.56549,-18.69441c0,-10.32464 10.55064,-18.69442 23.56549,-18.69442c13.01486,0 23.56549,8.36978 23.56549,18.69442c0,10.32464 -10.55063,18.69441 -23.56549,18.69441z" fill="#002bd6" stroke-width="NaN"/></g><g stroke="none" stroke-linecap="butt"><path d="M148.21623,104.05502l-5.52505,-6.45893l7.11211,1.1084l6.07445,-2.69018l6.77187,2.96252l7.03537,-0.9853l-6.15647,6.06348z" fill="#0023af" stroke-width="0"/><path d="M156.07187,127.98568c-9.46304,0 -17.13436,-6.08562 -17.13436,-13.59262c0,-7.507 7.67132,-13.59262 17.13436,-13.59262c9.46304,0 17.13435,6.08563 17.13435,13.59262c0,7.507 -7.67131,13.59262 -17.13435,13.59262z" fill="#002bd6" stroke-width="NaN"/></g><g><path d="M307.83894,304.42319c0,9.10946 -3.58686,19.13871 -10.20874,23.41801c-1.75591,1.13473 -4.59858,0.21227 -7.48873,0.23239c-2.52625,0.01757 -5.08875,1.04052 -6.99345,1.04052c-12.30139,0 -19.85634,-11.05452 -19.85634,-24.69094c0,-13.63642 5.82832,-24.00027 18.12971,-24.00027c2.26489,0 5.86628,0.52587 8.6713,1.04002c1.03611,0.1899 2.17784,0.24522 3.28724,0.32385c1.55128,0.10996 3.03931,0.26548 4.08675,0.89836c7.19028,4.34437 10.37228,12.83643 10.37228,21.73804z" fill="#6800ba" stroke="none" stroke-width="0" stroke-linecap="butt"/><path d="M286.34232,283.78986c0,0 0.77427,-5.90098 1.66688,-8.06871c0.58166,-1.41263 3.16773,-3.67244 3.16773,-3.67244" fill="none" stroke="#5a2c00" stroke-width="2" stroke-linecap="round"/><path d="M313.51415,274.00383c1.42011,4.96244 -4.79451,8.27519 -8.61735,9.22172c-4.48618,1.11078 -17.95195,-1.88464 -17.95195,-1.88464c0,0 8.87492,-9.74713 14.24295,-11.07624c5.36805,-1.3291 10.90625,-1.22327 12.32636,3.73917z" fill="#21cc00" stroke="none" stroke-width="0" stroke-linecap="butt"/><path d="M295.23449,329.45941c-12.30139,0 -22.27364,-10.01852 -22.27364,-23.65494c0,-8.83366 3.14879,-17.8819 9.44063,-22.55159c3.42082,-2.53886 8.50045,-3.17533 12.83301,-3.17533c12.30139,0 20.71966,11.05452 20.71966,24.69094c0,13.63642 -8.41828,24.69092 -20.71966,24.69092z" fill="#7600d7" stroke="none" stroke-width="0" stroke-linecap="butt"/></g><g><path d="M393.79168,151.37612c0,4.39653 -1.73114,9.23698 -4.92708,11.30231c-0.84746,0.54766 -2.21943,0.10245 -3.61431,0.11216c-1.21925,0.00848 -2.456,0.50219 -3.37527,0.50219c-5.93706,0 -9.58333,-5.33528 -9.58333,-11.91667c0,-6.58139 2.81294,-11.58333 8.75,-11.58333c1.09311,0 2.83126,0.2538 4.18506,0.50195c0.50006,0.09165 1.0511,0.11835 1.58653,0.1563c0.7487,0.05307 1.46687,0.12813 1.9724,0.43358c3.47027,2.09674 5.00601,6.19529 5.00601,10.4915z" fill="#6800ba" stroke="none" stroke-width="0" stroke-linecap="butt"/><path d="M383.41671,141.41776c0,0 0.37369,-2.84801 0.80449,-3.89423c0.28073,-0.68178 1.52885,-1.77244 1.52885,-1.77244" fill="none" stroke="#5a2c00" stroke-width="2" stroke-linecap="round"/><path d="M396.53072,136.69471c0.68539,2.39504 -2.31399,3.99388 -4.15902,4.45071c-2.16518,0.5361 -8.66421,-0.90959 -8.66421,-0.90959c0,0 4.28333,-4.70429 6.87412,-5.34576c2.5908,-0.64147 5.26372,-0.59039 5.94911,1.80465z" fill="#21cc00" stroke="none" stroke-width="0" stroke-linecap="butt"/><path d="M387.70836,163.45941c-5.93706,0 -10.75,-4.83527 -10.75,-11.41666c0,-4.26342 1.51971,-8.6304 4.55636,-10.88415c1.651,-1.22534 4.1026,-1.53252 6.19364,-1.53252c5.93706,0 10,5.33528 10,11.91667c0,6.58139 -4.06294,11.91666 -10,11.91666z" fill="#7600d7" stroke="none" stroke-width="0" stroke-linecap="butt"/></g><path d="M192.27527,171.5682c0,0 1.44059,-3.1739 2.65242,-4.56932c1.28338,-1.47779 4.84555,-4.06448 4.84555,-4.06448" fill="none" stroke="#00a133" stroke-width="2" stroke-linecap="round"/><path d="M191.06129,174.13015l-3.76408,-3.3339c0,0 1.74688,0.43018 4.08671,0.43018c1.24806,0 3.56051,-1.34708 3.56051,-1.34708c0,0 2.97162,1.11336 4.72272,1.17981c1.55579,0.05906 3.00899,-0.26291 3.00899,-0.26291l-3.97917,3.54899z" fill="#00a133" stroke="#00a133" stroke-width="2" stroke-linecap="butt"/><path d="M195.86296,212.36269c-13.66238,0 -24.73795,-8.32015 -24.73795,-19.64488c0,-7.33615 3.49716,-14.85051 10.48512,-18.72858c3.79928,-2.10847 9.44092,-0.42469 14.25283,-0.42469c3.25123,0 6.25824,-1.69247 8.95315,-0.74752c8.62965,3.02596 14.05891,10.41062 14.05891,19.04041c0,11.32473 -9.34966,20.50524 -23.01204,20.50524z" fill="#ff4040" stroke="none" stroke-width="0" stroke-linecap="butt"/><path d="M86.75987,164.65175l-6.14939,-1.88537" fill="none" stroke="#1e7300" stroke-width="3.5" stroke-linecap="round"/><path d="M82.99208,157.6233l5.2685,4.73547" fill="none" stroke="#1e7300" stroke-width="3.5" stroke-linecap="round"/><path d="M87.81906,154.42116l2.45667,6.64428" fill="none" stroke="#1e7300" stroke-width="3.5" stroke-linecap="round"/><path d="M107.59346,185.01205c-5.79394,-3.88948 -18.81364,-12.6296 -22.14031,-14.8628c-1.51252,-1.01536 -1.79728,-3.46594 -0.79298,-4.5833c1.2899,-1.4351 4.64453,-5.16734 6.82464,-7.59284c1.16493,-1.29606 3.16344,-0.76463 4.30563,0.65649c2.51497,3.12914 12.37029,15.39116 16.8016,20.90463c1.33612,1.66241 0.74544,4.23691 0.02171,5.00704c-0.73304,0.78004 -3.29725,1.62746 -5.02029,0.47078z" fill="#ff6600" stroke="none" stroke-width="0" stroke-linecap="butt"/><path d="M423.11425,264.54792l-1.33374,-9.95611" fill="none" stroke="#1e7300" stroke-width="3.5" stroke-linecap="round"/><path d="M427.34678,265.18264l3.28529,-10.56424" fill="none" stroke="#1e7300" stroke-width="3.5" stroke-linecap="round"/><path d="M430.4961,267.19915l7.82746,-7.81838" fill="none" stroke="#1e7300" stroke-width="3.5" stroke-linecap="round"/><path d="M407.80343,307.38845c1.74213,-10.75833 5.65688,-34.93363 6.65716,-41.11067c0.45479,-2.80849 3.74685,-4.81036 5.98734,-4.11362c2.87761,0.89488 10.36138,3.22219 15.22493,4.73468c2.59882,0.80818 3.14765,3.99084 1.87558,6.53833c-2.80096,5.60927 -13.77694,27.5901 -18.71217,37.4735c-1.48806,2.98002 -5.52676,3.82031 -7.09155,3.29535c-1.58492,-0.53171 -4.45938,-3.61818 -3.94129,-6.81756z" fill="#ff6600" stroke="none" stroke-width="0" stroke-linecap="butt"/><g fill="#ffffff" stroke-linecap="butt" font-family="Sans Serif" font-weight="normal" font-size="40" text-anchor="start"><text transform="translate(32.96903,197.181) scale(1.43175,1.43175)" font-size="40" xml:space="preserve" fill="#ffffff" fill-rule="nonzero" stroke="#000000" stroke-width="5" stroke-linecap="butt" stroke-linejoin="miter" stroke-miterlimit="10" stroke-dasharray="" stroke-dashoffset="0" font-family="Sans Serif" font-weight="normal" text-anchor="start" style="mix-blend-mode: normal"><tspan x="0" dy="0">Grow A Garden</tspan></text><text transform="translate(32.96913,197.18099) scale(1.43174,1.43174)" font-size="40" xml:space="preserve" fill="#ffffff" fill-rule="nonzero" stroke="#ffffff" stroke-width="2" stroke-linecap="butt" stroke-linejoin="miter" stroke-miterlimit="10" stroke-dasharray="" stroke-dashoffset="0" font-family="Sans Serif" font-weight="normal" text-anchor="start" style="mix-blend-mode: normal"><tspan x="0" dy="0">Grow A Garden</tspan></text></g><g stroke-linecap="butt"><path d="M-21.94203,356.52311c0,0 9.58805,-44.22301 14.37391,-66.29688c0.54216,-2.50061 10.8584,-5.40943 11.25639,-7.24506c2.31124,-10.66017 -4.32014,-24.74702 -4.32014,-24.74702l75.16215,16.296c0,0 -11.95966,8.62744 -14.39962,19.88124c-0.31659,1.46019 7.78417,10.63122 7.3798,12.4963c-4.61267,21.27503 -14.29034,65.91142 -14.29034,65.91142z" fill="#ad8740" stroke="#ffffff" stroke-width="5.5"/><path d="M-21.94203,356.52311c0,0 9.58805,-44.22301 14.37391,-66.29688c0.54216,-2.50061 10.8584,-5.40943 11.25639,-7.24506c2.31124,-10.66017 -4.32014,-24.74702 -4.32014,-24.74702l75.16215,16.296c0,0 -11.95966,8.62744 -14.39962,19.88124c-0.31659,1.46019 7.78417,10.63122 7.3798,12.4963c-4.61267,21.27503 -14.29034,65.91142 -14.29034,65.91142z" fill="#ad8740" stroke="none" stroke-width="0"/><path d="M-9.06967,347.40883l10.19545,-47.02452l54.34802,11.78326l-10.19545,47.02452z" fill="#ffffff" stroke="none" stroke-width="0"/><path d="M0.78049,285.29102l1.58781,-7.32349l60.90062,13.20394l-1.58781,7.32349z" fill="#935226" stroke="none" stroke-width="0"/><path d="M16.63735,318.94406l-4.47117,-8.30003l7.44905,2.87303l7.21699,-1.48852l6.64447,4.80294l7.85794,0.58542l-8.09871,5.12592z" fill="#0023af" stroke="none" stroke-width="0"/><path d="M19.5286,346.73131c-10.25798,-2.22405 -17.14345,-10.62384 -15.37913,-18.76146c1.76433,-8.13762 11.51034,-12.93152 21.76832,-10.70747c10.25798,2.22405 17.14345,10.62384 15.37913,18.76146c-1.76433,8.13762 -11.51034,12.93152 -21.76832,10.70747z" fill="#002bd6" stroke="none" stroke-width="NaN"/></g><g><path d="M56.66428,389.57179c0,0 -5.26817,-37.87934 -7.89776,-56.78677c-0.29789,-2.1419 7.04039,-7.45343 6.82172,-9.02575c-1.26992,-9.13099 -10.63285,-18.37716 -10.63285,-18.37716l64.38034,-8.95386c0,0 -6.97724,10.32732 -5.6366,19.9668c0.17395,1.25073 9.27147,6.16874 9.49365,7.76627c2.53444,18.22318 7.85185,56.45661 7.85185,56.45661z" fill="#ad8740" stroke="#ffffff" stroke-width="5.5" stroke-linecap="butt"/><path d="M56.66428,389.57179c0,0 -5.26817,-37.87934 -7.89776,-56.78677c-0.29789,-2.1419 7.04039,-7.45343 6.82172,-9.02575c-1.26992,-9.13099 -10.63285,-18.37716 -10.63285,-18.37716l64.38034,-8.95386c0,0 -6.97724,10.32732 -5.6366,19.9668c0.17395,1.25073 9.27147,6.16874 9.49365,7.76627c2.53444,18.22318 7.85185,56.45661 7.85185,56.45661z" fill="#ad8740" stroke="none" stroke-width="0" stroke-linecap="butt"/><path d="M64.22392,378.59244l-5.6019,-40.27898l46.55194,-6.47433l5.6019,40.27898z" fill="#ffffff" stroke="none" stroke-width="0" stroke-linecap="butt"/><path d="M53.95363,326.43854l-0.87243,-6.27295l52.16459,-7.25492l0.87243,6.27295z" fill="#935226" stroke="none" stroke-width="0" stroke-linecap="butt"/><path d="M77.56994,344.64817l3.8215,5.17356" fill="none" stroke="#1e7300" stroke-width="3.5" stroke-linecap="round"/><path d="M83.96176,348.8713l-1.41799,-6.94054" fill="none" stroke="#1e7300" stroke-width="3.5" stroke-linecap="round"/><path d="M88.32869,342.22816l-1.97772,6.80223" fill="none" stroke="#1e7300" stroke-width="3.5" stroke-linecap="round"/><path d="M76.26141,366.09925c-1.06832,-3.22093 -2.30682,-6.16876 -3.0912,-8.53362c-0.80469,-2.42611 1.32813,-6.54187 3.79053,-6.88433c2.96887,-0.4129 8.45398,-1.17576 13.30055,-1.84981c2.6864,-0.37362 6.01209,3.6456 5.73905,6.47201c-0.22756,2.35572 -0.58343,5.47759 -0.88992,8.6503c-0.12893,1.33466 -2.47037,5.82364 -5.06742,7.15976c-1.26381,0.6502 -5.73087,1.04308 -7.12898,0.67298c-2.85847,-0.75666 -6.27127,-4.53755 -6.65262,-5.68731z" fill="#ff0000" stroke="none" stroke-width="0" stroke-linecap="butt"/><path d="M79.81522,367.65517c-0.05706,-0.41026 0.22928,-0.78911 0.63954,-0.84616c0.41026,-0.05706 0.78911,0.22928 0.84616,0.63954c0.05706,0.41026 -0.22928,0.78911 -0.63954,0.84616c-0.41026,0.05706 -0.78911,-0.22928 -0.84616,-0.63954z" fill="#ffe166" stroke="none" stroke-width="0.5" stroke-linecap="butt"/><path d="M82.75019,368.59313c-0.05706,-0.41026 0.22928,-0.78911 0.63954,-0.84616c0.41026,-0.05706 0.78911,0.22928 0.84616,0.63954c0.05706,0.41026 -0.22928,0.78911 -0.63954,0.84616c-0.41026,0.05706 -0.78911,-0.22928 -0.84616,-0.63954z" fill="#ffe166" stroke="none" stroke-width="0.5" stroke-linecap="butt"/><path d="M86.30246,368.32348c-0.05706,-0.41026 0.22928,-0.78911 0.63954,-0.84616c0.41026,-0.05706 0.78911,0.22928 0.84616,0.63954c0.05706,0.41026 -0.22928,0.78911 -0.63954,0.84616c-0.41026,0.05706 -0.78911,-0.22928 -0.84616,-0.63954z" fill="#ffe166" stroke="none" stroke-width="0.5" stroke-linecap="butt"/><path d="M89.87877,365.80684c-0.05706,-0.41026 0.22928,-0.78911 0.63954,-0.84616c0.41026,-0.05706 0.78911,0.22928 0.84616,0.63954c0.05706,0.41026 -0.22928,0.78911 -0.63954,0.84616c-0.41026,0.05706 -0.78911,-0.22928 -0.84616,-0.63954z" fill="#ffe166" stroke="none" stroke-width="0.5" stroke-linecap="butt"/><path d="M85.04522,364.12328c-0.05706,-0.41026 0.22928,-0.78911 0.63954,-0.84616c0.41026,-0.05706 0.78911,0.22928 0.84616,0.63954c0.05706,0.41026 -0.22928,0.78911 -0.63954,0.84616c-0.41026,0.05706 -0.78911,-0.22928 -0.84616,-0.63954z" fill="#ffe166" stroke="none" stroke-width="0.5" stroke-linecap="butt"/><path d="M80.55131,364.07521c-0.05706,-0.41026 0.22928,-0.78911 0.63954,-0.84616c0.41026,-0.05706 0.78911,0.22928 0.84616,0.63954c0.05706,0.41026 -0.22928,0.78911 -0.63954,0.84616c-0.41026,0.05706 -0.78911,-0.22928 -0.84616,-0.63954z" fill="#ffe166" stroke="none" stroke-width="0.5" stroke-linecap="butt"/><path d="M76.71115,361.46822c-0.05706,-0.41026 0.22928,-0.78911 0.63954,-0.84616c0.41026,-0.05706 0.78911,0.22928 0.84616,0.63954c0.05706,0.41026 -0.22928,0.78911 -0.63954,0.84616c-0.41026,0.05706 -0.78911,-0.22928 -0.84616,-0.63954z" fill="#ffe166" stroke="none" stroke-width="0.5" stroke-linecap="butt"/><path d="M81.47981,359.45884c-0.05706,-0.41026 0.22928,-0.78911 0.63954,-0.84616c0.41026,-0.05706 0.78911,0.22928 0.84616,0.63954c0.05706,0.41026 -0.22928,0.78911 -0.63954,0.84616c-0.41026,0.05706 -0.78911,-0.22928 -0.84616,-0.63954z" fill="#ffe166" stroke="none" stroke-width="0.5" stroke-linecap="butt"/><path d="M87.61867,360.84868c-0.05706,-0.41026 0.22928,-0.78911 0.63954,-0.84616c0.41026,-0.05706 0.78911,0.22928 0.84616,0.63954c0.05706,0.41026 -0.22928,0.78911 -0.63954,0.84616c-0.41026,0.05706 -0.78911,-0.22928 -0.84616,-0.63954z" fill="#ffe166" stroke="none" stroke-width="0.5" stroke-linecap="butt"/><path d="M91.28682,358.99236c-0.05706,-0.41026 0.22928,-0.78911 0.63954,-0.84616c0.41026,-0.05706 0.78911,0.22928 0.84616,0.63954c0.05706,0.41026 -0.22928,0.78911 -0.63954,0.84616c-0.41026,0.05706 -0.78911,-0.22928 -0.84616,-0.63954z" fill="#ffe166" stroke="none" stroke-width="0.5" stroke-linecap="butt"/><path d="M92.35748,362.65759c-0.05706,-0.41026 0.22928,-0.78911 0.63954,-0.84616c0.41026,-0.05706 0.78911,0.22928 0.84616,0.63954c0.05706,0.41026 -0.22928,0.78911 -0.63954,0.84616c-0.41026,0.05706 -0.78911,-0.22928 -0.84616,-0.63954z" fill="#ffe166" stroke="none" stroke-width="0.5" stroke-linecap="butt"/><path d="M86.50501,356.06763c-0.05706,-0.41026 0.22928,-0.78911 0.63954,-0.84616c0.41026,-0.05706 0.78911,0.22928 0.84616,0.63954c0.05706,0.41026 -0.22928,0.78911 -0.63954,0.84616c-0.41026,0.05706 -0.78911,-0.22928 -0.84616,-0.63954z" fill="#ffe166" stroke="none" stroke-width="0.5" stroke-linecap="butt"/><path d="M89.20091,353.67344c-0.05706,-0.41026 0.22928,-0.78911 0.63954,-0.84616c0.41026,-0.05706 0.78911,0.22928 0.84616,0.63954c0.05706,0.41026 -0.22928,0.78911 -0.63954,0.84616c-0.41026,0.05706 -0.78911,-0.22928 -0.84616,-0.63954z" fill="#ffe166" stroke="none" stroke-width="0.5" stroke-linecap="butt"/><path d="M85.84396,352.12106c-0.05706,-0.41026 0.22928,-0.78911 0.63954,-0.84616c0.41026,-0.05706 0.78911,0.22928 0.84616,0.63954c0.05706,0.41026 -0.22928,0.78911 -0.63954,0.84616c-0.41026,0.05706 -0.78911,-0.22928 -0.84616,-0.63954z" fill="#ffe166" stroke="none" stroke-width="0.5" stroke-linecap="butt"/><path d="M82.02932,355.34392c-0.05706,-0.41026 0.22928,-0.78911 0.63954,-0.84616c0.41026,-0.05706 0.78911,0.22928 0.84616,0.63954c0.05706,0.41026 -0.22928,0.78911 -0.63954,0.84616c-0.41026,0.05706 -0.78911,-0.22928 -0.84616,-0.63954z" fill="#ffe166" stroke="none" stroke-width="0.5" stroke-linecap="butt"/><path d="M78.15563,353.30252c-0.05706,-0.41026 0.22928,-0.78911 0.63954,-0.84616c0.41026,-0.05706 0.78911,0.22928 0.84616,0.63954c0.05706,0.41026 -0.22928,0.78911 -0.63954,0.84616c-0.41026,0.05706 -0.78911,-0.22928 -0.84616,-0.63954z" fill="#ffe166" stroke="none" stroke-width="0.5" stroke-linecap="butt"/><path d="M74.87595,356.33879c-0.05706,-0.41026 0.22928,-0.78911 0.63954,-0.84616c0.41026,-0.05706 0.78911,0.22928 0.84616,0.63954c0.05706,0.41026 -0.22928,0.78911 -0.63954,0.84616c-0.41026,0.05706 -0.78911,-0.22928 -0.84616,-0.63954z" fill="#ffe166" stroke="none" stroke-width="0.5" stroke-linecap="butt"/><path d="M78.83199,357.35913c-0.05706,-0.41026 0.22928,-0.78911 0.63954,-0.84616c0.41026,-0.05706 0.78911,0.22928 0.84616,0.63954c0.05706,0.41026 -0.22928,0.78911 -0.63954,0.84616c-0.41026,0.05706 -0.78911,-0.22928 -0.84616,-0.63954z" fill="#ffe166" stroke="none" stroke-width="0.5" stroke-linecap="butt"/><path d="M93.22109,354.3483c-0.05706,-0.41026 0.22928,-0.78911 0.63954,-0.84616c0.41026,-0.05706 0.78911,0.22928 0.84616,0.63954c0.05706,0.41026 -0.22928,0.78911 -0.63954,0.84616c-0.41026,0.05706 -0.78911,-0.22928 -0.84616,-0.63954z" fill="#ffe166" stroke="none" stroke-width="0.5" stroke-linecap="butt"/></g><g><path d="M415.65428,406.67478c0,0 -16.59668,-67.41454 -24.8809,-101.06442c-0.93847,-3.81198 11.31916,-14.77548 10.63026,-17.57376c-4.00071,-16.25059 -22.63673,-31.19568 -22.63673,-31.19568l114.57883,-28.20799c0,0 -10.66768,19.95313 -6.44417,37.10868c0.548,2.22595 17.89536,9.40519 18.59531,12.24835c7.98442,32.43212 24.73624,100.47682 24.73624,100.47682z" fill="#ad8740" stroke="#ffffff" stroke-width="5.5" stroke-linecap="butt"/><path d="M415.65428,406.67478c0,0 -16.59668,-67.41454 -24.8809,-101.06442c-0.93847,-3.81198 11.31916,-14.77548 10.63026,-17.57376c-4.00071,-16.25059 -22.63673,-31.19568 -22.63673,-31.19568l114.57883,-28.20799c0,0 -10.66768,19.95313 -6.44417,37.10868c0.548,2.22595 17.89536,9.40519 18.59531,12.24835c7.98442,32.43212 24.73624,100.47682 24.73624,100.47682z" fill="#ad8740" stroke="none" stroke-width="0" stroke-linecap="butt"/><path d="M427.25168,385.43535l-17.64807,-71.68521l82.84931,-20.39655l17.64807,71.68521z" fill="#ffffff" stroke="none" stroke-width="0" stroke-linecap="butt"/><path d="M398.95305,293.18034l-2.74847,-11.16409l92.83824,-22.85571l2.74847,11.16409z" fill="#935226" stroke="none" stroke-width="0" stroke-linecap="butt"/><path d="M475.55654,311.09794c2.24755,3.92442 -2.34577,8.04442 -5.39985,9.65038c-3.58402,1.88463 -15.66758,2.15662 -15.66758,2.15662c0,0 5.50893,-10.15133 9.79747,-12.4064c4.28856,-2.25508 9.02242,-3.325 11.26996,0.59942z" fill="#21cc00" stroke="none" stroke-width="0" stroke-linecap="butt"/><path d="M467.05261,364.83304c-13.9961,3.44568 -27.44057,-2.28442 -30.29669,-13.88577c-1.85019,-7.51535 -0.16275,-16.09524 6.01785,-21.83042c3.36032,-3.11816 9.56442,-2.81608 14.49387,-4.02966c3.33065,-0.81997 5.98427,-3.31215 8.98332,-3.02378c9.6036,0.92345 17.02789,7.11923 19.20434,15.95981c2.85612,11.60135 -4.40657,23.36411 -18.40267,26.80979z" fill="#f11700" stroke="none" stroke-width="0" stroke-linecap="butt"/><path d="M454.48943,325.11458c0,0 -0.57723,-5.1825 -0.27186,-7.21368c0.19899,-1.32364 1.9258,-3.78784 1.9258,-3.78784" fill="none" stroke="#5a2c00" stroke-width="2" stroke-linecap="round"/></g><g><path d="M344.50001,379.5c0,0 0,-38.24393 0,-57.33334c0,-2.16252 8,-6.41255 8,-8c0,-9.21888 -8,-19.66666 -8,-19.66666h65c0,0 -8.33333,9.26774 -8.33333,19c0,1.26277 8.33333,7.38709 8.33333,9c0,18.39858 0,57 0,57z" fill="#ad8740" stroke="#ffffff" stroke-width="5.5" stroke-linecap="butt"/><path d="M344.50001,379.5c0,0 0,-38.24393 0,-57.33334c0,-2.16252 8,-6.41255 8,-8c0,-9.21888 -8,-19.66666 -8,-19.66666h65c0,0 -8.33333,9.26774 -8.33333,19c0,1.26277 8.33333,7.38709 8.33333,9c0,18.39858 0,57 0,57z" fill="#ad8740" stroke="none" stroke-width="0" stroke-linecap="butt"/><path d="M353.50001,369.66667v-40.66666h47v40.66666z" fill="#ffffff" stroke="none" stroke-width="0" stroke-linecap="butt"/><path d="M350.51191,316.59523v-6.33333h52.66667v6.33333z" fill="#935226" stroke="none" stroke-width="0" stroke-linecap="butt"/><path d="M377.10128,367.4375c-2.60063,0 -4.70886,-2.25197 -4.70886,-5.02992c0,-2.77795 2.10823,-5.02992 4.70886,-5.02992c2.60063,0 4.70886,2.25197 4.70886,5.02992c0,2.77795 -2.10823,5.02992 -4.70886,5.02992z" fill="#8a00ba" stroke="none" stroke-width="0" stroke-linecap="butt"/><path d="M372.74686,361.86788c-2.60063,0 -4.70886,-2.25197 -4.70886,-5.02992c0,-2.77795 2.10823,-5.02992 4.70886,-5.02992c2.60063,0 4.70886,2.25197 4.70886,5.02992c0,2.77795 -2.10823,5.02992 -4.70886,5.02992z" fill="#74009b" stroke="none" stroke-width="0" stroke-linecap="butt"/><path d="M380.74686,361.96915c-2.60063,0 -4.70886,-2.25197 -4.70886,-5.02992c0,-2.77795 2.10823,-5.02992 4.70886,-5.02992c2.60063,0 4.70886,2.25197 4.70886,5.02992c0,2.77795 -2.10823,5.02992 -4.70886,5.02992z" fill="#9935ba" stroke="none" stroke-width="0" stroke-linecap="butt"/><path d="M373.05067,348.80459c-2.60063,0 -4.70886,-2.25197 -4.70886,-5.02992c0,-2.77795 2.10823,-5.02992 4.70886,-5.02992c2.60063,0 4.70886,2.25197 4.70886,5.02992c0,2.77795 -2.10823,5.02992 -4.70886,5.02992z" fill="#a326cd" stroke="none" stroke-width="0" stroke-linecap="butt"/><path d="M376.71021,341.26315c0,0 -0.14605,-2.49079 0.42216,-3.71885c0.69697,-1.50636 2.82784,-4.65615 2.82784,-4.65615" fill="none" stroke="#9a5200" stroke-width="2" stroke-linecap="round"/><path d="M364.58521,339.38815c0,0 0.40627,-1.06827 0.27579,-1.63098c-0.16639,-0.71757 -1.19286,-2.32392 -1.19286,-2.32392c0,0 2.29545,-0.52236 3.08343,-1.04363c0.80884,-0.53507 1.70865,-2.12647 1.70865,-2.12647c0,0 2.46939,1.47406 4.00338,1.72973c1.6991,0.28318 5.74662,-0.10473 5.74662,-0.10473c0,0 -1.87691,1.6424 -2.54855,2.59061c-0.73864,1.04279 -1.70145,3.40939 -1.70145,3.40939c0,0 -3.28769,-0.67534 -4.88112,-0.76033c-1.52891,-0.08154 -4.49388,0.26033 -4.49388,0.26033z" fill="#00a541" stroke="none" stroke-width="0" stroke-linecap="butt"/><path d="M386.02794,343.88976c-1.58602,-0.17537 -4.93978,-0.04387 -4.93978,-0.04387c0,0 -0.56498,-2.4917 -1.12413,-3.64077c-0.50844,-1.04484 -2.09316,-2.9707 -2.09316,-2.9707c0,0 3.93049,1.04121 5.65303,1.03821c1.55515,-0.00271 4.23144,-1.05541 4.23144,-1.05541c0,0 0.62893,1.71658 1.33995,2.37611c0.69268,0.64252 2.87257,1.53135 2.87257,1.53135c0,0 -1.27412,1.41796 -1.55503,2.0989c-0.22029,0.53399 0.00679,1.65412 0.00679,1.65412c0,0 -2.86986,-0.81966 -4.39167,-0.98793z" data-paper-data="{&quot;index&quot;:null}" fill="#00a541" stroke="none" stroke-width="0" stroke-linecap="butt"/><path d="M387.84503,337.30112c-1.48638,0.58041 -4.39642,2.25276 -4.39642,2.25276c0,0 -1.65643,-1.94526 -2.68484,-2.70379c-0.93513,-0.68973 -3.23243,-1.66065 -3.23243,-1.66065c0,0 3.96498,-0.90101 5.48955,-1.70277c1.37642,-0.72384 3.25894,-2.89798 3.25894,-2.89798c0,0 1.3535,1.22893 2.28934,1.48334c0.9117,0.24785 3.25517,0.02398 3.25517,0.02398c0,0 -0.47091,1.84722 -0.40387,2.58077c0.05257,0.57524 0.77338,1.4622 0.77338,1.4622c0,0 -2.92261,0.60524 -4.34881,1.16215z" data-paper-data="{&quot;index&quot;:null}" fill="#00a541" stroke="none" stroke-width="0" stroke-linecap="butt"/><path d="M381.05067,348.90585c-2.60063,0 -4.70886,-2.25197 -4.70886,-5.02992c0,-2.77795 2.10823,-5.02992 4.70886,-5.02992c2.60063,0 4.70886,2.25197 4.70886,5.02992c0,2.77795 -2.10823,5.02992 -4.70886,5.02992z" fill="#74009b" stroke="none" stroke-width="0" stroke-linecap="butt"/><path d="M369.7089,355.2856c-2.60063,0 -4.70886,-2.25197 -4.70886,-5.02992c0,-2.77795 2.10823,-5.02992 4.70886,-5.02992c2.60063,0 4.70886,2.25197 4.70886,5.02992c0,2.77795 -2.10823,5.02992 -4.70886,5.02992z" fill="#9935ba" stroke="none" stroke-width="0" stroke-linecap="butt"/><path d="M376.69622,354.88054c-2.60063,0 -4.70886,-2.25197 -4.70886,-5.02992c0,-2.77795 2.10823,-5.02992 4.70886,-5.02992c2.60063,0 4.70886,2.25197 4.70886,5.02992c0,2.77795 -2.10823,5.02992 -4.70886,5.02992z" fill="#8a00ba" stroke="none" stroke-width="0" stroke-linecap="butt"/><path d="M384.29117,355.38687c-2.60063,0 -4.70886,-2.25197 -4.70886,-5.02992c0,-2.77795 2.10823,-5.02992 4.70886,-5.02992c2.60063,0 4.70886,2.25197 4.70886,5.02992c0,2.77795 -2.10823,5.02992 -4.70886,5.02992z" fill="#a326cd" stroke="none" stroke-width="0" stroke-linecap="butt"/></g></g></g></svg>