<svg version="1.1" xmlns="http://www.w3.org/2000/svg" xmlns:xlink="http://www.w3.org/1999/xlink" width="520" height="443.00001" viewBox="0,0,520,443.00001"><g transform="translate(29.21429,26.21429)"><g data-paper-data="{&quot;isPaintingLayer&quot;:true}" fill-rule="nonzero" stroke-linecap="butt" stroke-linejoin="miter" stroke-miterlimit="10" stroke-dasharray="" stroke-dashoffset="0" style="mix-blend-mode: normal"><path d="M-29.21429,159.78571v-186h515v186z" fill="#618eff" stroke="none" stroke-width="0"/><path d="M465.28486,149.28748c-1.44431,0.00946 -3.31522,0.03605 -4.53237,-0.43419c-0.9028,-0.34879 -1.49578,-1.29073 -2.40146,-1.63195c-0.73594,-0.27727 -1.70253,0.28099 -2.35392,-0.15966c-0.77083,-0.52145 -0.85762,-1.66376 -1.42827,-2.39891c-0.87441,-1.12648 -3.49595,-3.06651 -4.12887,-4.21449c-1.0346,-1.87655 -1.14331,-5.53458 -1.15427,-7.66258c0,-4.89054 -0.75656,-10.59634 0.07269,-15.40626c0.50806,-2.9469 2.32749,-5.41812 3.28823,-8.19013c1.37934,-3.97976 3.45378,-7.46097 6.3264,-10.68756c2.67331,-3.00271 4.8269,-4.2491 8.81268,-4.21605c0.85882,0.00712 1.80884,-0.27584 2.57403,0.11418c3.94119,2.00887 4.89774,7.72533 4.91551,11.55507c-0.27213,3.05075 -0.99545,5.77083 -0.98953,8.83075c0.00285,1.47581 -0.80627,3.1225 -0.11418,4.42597c1.42485,2.68356 5.65416,2.99077 4,7.14805c-0.38986,0.97982 -1.54363,1.45392 -2.16896,2.30304c-1.00141,1.35979 -1.96613,2.74946 -3.03991,4.05287c-4.17752,5.07089 -4.67695,10.79213 -4.67695,17.07006c0,0 0,1.5 -1.5,1.5c-1.5,0 -1.5,-1.5 -1.5,-1.5c0,-0.16563 -0.00033,-0.33172 -0.00085,-0.49823z" fill="#828282" stroke="none" stroke-width="0.5"/><path d="M165.28589,139.77479c-0.2964,-0.39368 -0.57017,-0.80167 -0.7989,-1.23852c-1.201,-2.29387 -0.99594,-3.66528 -1.80423,-6.01635c-0.15985,-0.46494 -2.28824,-5.01867 -2.36478,-5.42472c-0.49634,-2.63322 0.50356,-7.10145 2.27715,-9.22193c2.28415,-2.73089 5.79441,-3.04758 8.97995,-3.92149c5.6689,-1.55518 11.33367,-3.12636 17.01042,-4.65266c2.73352,-0.01146 5.46667,-0.01342 8.20021,-0.01342c1,0 2.00616,-0.11084 3,0c0.34354,0.03831 0.83003,0.76727 0.93934,0.43934c0.2096,-0.62881 -0.38062,-1.27912 -0.43934,-1.93934c-0.30214,-3.3968 -0.56759,-8.34404 0.86315,-11.53353c2.04143,-4.55088 7.87221,-11.26367 12.34069,-13.59514c1.75469,-0.91552 3.93372,-0.61736 5.79663,-1.28571c1.8496,-0.66357 3.0911,-2.50359 4.89241,-3.28885c0.99737,-0.43479 2.11297,-0.52013 3.16945,-0.78019c4.70427,-1.11394 14.48016,-3.12807 16.85402,2.98951c0.44713,1.15228 -0.7347,2.62159 -0.14038,3.70531c0.59869,1.09167 2.47899,0.29743 3.72402,0.2886c3.58033,-0.0254 9.02601,-0.9677 12.43468,0.06436c0.27401,0.08296 4.96392,3.23179 5.38968,3.51576c4.46833,2.98037 7.788,6.56396 10.49602,11.20811c0.81362,2.49493 1.48934,0.7459 3.9199,1.23113c1.85833,0.37099 5.03948,1.60223 6.29191,3.12788c0.72455,0.88262 0.82435,2.13012 1.26231,3.18472c1.2292,2.95996 2.32617,6.32599 1.64661,9.63448c-0.5314,2.58715 -1.7583,2.47658 -3.22423,4.41061c-1.32529,1.74847 -1.57208,4.6348 -3.1562,6.18359c-1.96469,1.92088 -5.30452,1.98977 -7.81648,2.41933c-3.64511,0.62334 -7.05925,1.75507 -10.63468,2.65404c-12.42441,3.11922 -24.54011,8.37002 -37.37598,10.34768c-5.79319,0.89258 -12.1749,-0.17619 -17.85991,0.97913c-1.78784,0.36333 -3.54934,1.01785 -5.3736,1.03915c-5.52502,0 -11.78266,0.84883 -17.24027,-0.01937c-1.60555,-0.25541 -3.1519,-0.96864 -4.77759,-0.98074c-3.89299,-0.02896 -8.40993,0.61032 -12.37193,-0.12291c-0.90639,0.44898 -1.55947,-0.18069 -1.77828,-0.44118c-0.51573,-0.16467 -1.01766,-0.36097 -1.50274,-0.59416l-0.82918,-2.34164c0,0 0,-0.00376 0.00019,-0.01091z" fill="#828282" stroke="none" stroke-width="0.5"/><path d="M37.41062,105.17738c-0.1722,0.06777 -0.37828,0.10832 -0.62492,0.10832c-1.5,0 -1.5,-1.5 -1.5,-1.5c0,-3.20182 -0.5844,-7.10833 0.01937,-10.24027c0.7694,-3.99112 2.82206,-7.86673 4.4786,-11.53777c0.17231,-0.38186 2.50808,-5.58769 2.64765,-5.76851c1.94527,-2.52037 6.88174,-5.9181 9.75721,-7.16096c2.64969,-1.14528 6.43939,-0.78114 4.28227,-4.57067c-0.21446,-0.35712 -3.06182,-5.06589 -3.13066,-5.32141c-0.70832,-2.62895 -0.05443,-6.66088 -0.05443,-9.4004c0,-2.76513 -0.62538,-6.67587 0.04013,-9.34463c0.74485,-2.98694 3.882,-6.02199 6.376,-7.66862c0.1003,-0.06622 5.514,-2.48977 5.73623,-2.58096c1.41924,-0.58239 3.24285,-0.45216 4.34386,-1.52043c0.46175,-0.44802 0.40092,-1.2477 0.78692,-1.76242c2.9754,-3.96767 6.3733,-8.1463 9.78147,-11.77426c1.72448,-1.24314 3.07145,-3.04987 4.98267,-3.9807c2.58078,-1.25692 3.63537,-0.34627 6.17153,-0.84139c4.25678,-0.83102 10.2159,-2.18576 14.62526,-0.9866c12.23328,3.32695 19.18081,16.08402 22.55007,27.26152c0.10767,0.90336 0.79535,5.96169 0.51273,6.7188c-0.9572,2.56425 -4.7083,3.78026 -6.02105,6.05371c-0.43123,0.74681 0.99863,2.81215 1.04595,2.97872c0.72219,2.5425 0.98582,5.7385 1.06722,8.39222c0.15663,5.10654 0.52464,12.23193 -2.19369,16.79408c-1.27022,2.13181 -2.73459,1.91103 -3.55617,4.25986c-0.79066,2.26044 -0.22781,5.63655 -0.24915,8.00783c0.00001,1.99373 0.47986,5.36152 -0.04011,7.33789c-1.62645,6.18198 -7.99628,7.92267 -13.15869,9.12482c-1.71726,0.39989 -3.19954,1.534 -4.90604,1.97757c-4.82439,1.25398 -9.86337,1.61399 -14.68233,2.87978c-4.92454,1.29352 -9.88693,0.68246 -14.26144,3.47492c-7.94669,0.91757 -15.38536,2.69829 -23.45138,2.69829c-2.49161,0 -5.0174,0.49761 -7.06066,-1.43934c-1.08186,-1.02557 -0.93651,-2.95539 -2,-4c-0.60749,-0.5967 -1.77682,-0.54213 -2.21532,-1.27206c-0.48021,-0.79938 -0.14935,-1.85906 -0.22402,-2.7886v-2c0,0 0,-0.28605 0.12492,-0.60832z" fill="#828282" stroke="none" stroke-width="0.5"/><path d="M424.78571,178.78571v-36h56v36z" fill="#000000" stroke="#000000" stroke-width="0.5"/><path d="M-3.91215,191.09094l24.3225,-92.86773l146.07321,38.25727l-24.3225,92.86773z" fill="#000000" stroke="#000000" stroke-width="0.5"/><path d="M173.78571,212.78571v-79h71v79z" fill="#000000" stroke="#000000" stroke-width="0.5"/><path d="M222.92492,226.46786l-25.36756,-102.91981l70.08913,-14.4445l77.36756,95.91981z" fill="#000000" stroke="#000000" stroke-width="0.5"/><path d="M-21.21429,347.78572v-164h512v164z" fill="#244aab" stroke="none" stroke-width="0"/><path d="M-14.21429,416.78572v-166c0,0 140.83747,-11.77298 211.95995,-1.71673c16.76967,2.37112 35.5906,15.07495 27.61457,31.51024c-7.68921,15.84427 -42.33098,35.36834 -19.8067,41.28205c76.64203,20.12225 279.23219,-3.07556 279.23219,-3.07556l-2,98z" fill="#00bf05" stroke="none" stroke-width="0"/><path d="M-5.21429,205.78572v-49h492l-2,106c0,0 -121.93406,10.61885 -180.00317,8.07226c-30.78492,-1.35005 12.87046,-19.95919 2.76662,-42.85061c-11.80087,-26.73622 -96.18092,-33.22164 -121.76345,-33.22164c-71.34589,0 -191,11 -191,11z" fill="#00bf05" stroke="none" stroke-width="0"/><path d="M-5.21429,207.78572l-1,-12c0,0 160.86229,-12.17968 242.01464,-2.1181c18.93854,2.34807 64.19919,14.94866 74.3208,34.38077c6.87335,13.1959 -24.01171,34.39181 -6.84967,38.8797c20.99664,5.49064 46.4034,3.62957 71.50256,2.57883c56.27912,-2.35604 111.01167,-12.7212 111.01167,-12.7212l-3,12c0,0 -25.59955,3.03648 -58.04371,6.60225c-37.9893,4.1752 -86.10491,8.33399 -124.65975,-1.97008c-19.88946,-5.31561 5.60769,-29.69813 -3.23657,-44.83572c-9.83582,-16.83471 -53.62031,-24.36649 -69.98304,-26.41184c-78.32036,-9.79005 -232.07692,5.61538 -232.07692,5.61538z" fill="#00a505" stroke="none" stroke-width="0"/><path d="M87.78571,334.78572l17,-236v182l17,54z" fill="#8a4100" stroke="none" stroke-width="0"/><path d="M98.78571,246.78572l2,-12l35.61696,-20.46085l39.38304,-54.53915l-30,59z" fill="#8a4100" stroke="none" stroke-width="0"/><path d="M55.20598,255.17776l-9.17624,-65.54995l19.50005,64.38394l27.02416,30.93394l-2.01226,11.99795z" data-paper-data="{&quot;index&quot;:null}" fill="#8a4100" stroke="none" stroke-width="0"/><path d="M383.78572,224.78572l17,-236v182l17,54z" fill="#8a4100" stroke="none" stroke-width="0"/><path d="M394.78572,136.78572l2,-12l35.61696,-20.46085l39.38304,-54.53915l-30,59z" fill="#8a4100" stroke="none" stroke-width="0"/><path d="M351.20598,145.17775l-9.17624,-65.54995l19.50005,64.38394l27.02416,30.93394l-2.01227,11.99795z" data-paper-data="{&quot;index&quot;:null}" fill="#8a4100" stroke="none" stroke-width="0"/><path d="M307.78572,193.78572l8,-48l12,48z" fill="#009c05" stroke="none" stroke-width="0"/><path d="M320.78572,197.78572l8,-48l12,48z" fill="#009c05" stroke="none" stroke-width="0"/><path d="M335.78572,198.78572l8,-48l12,48z" fill="#009c05" stroke="none" stroke-width="0"/><path d="M133.78571,292.78572l8,-48l12,48z" fill="#009c05" stroke="none" stroke-width="0"/><path d="M122.78571,294.78572l8,-48l12,48z" fill="#009c05" stroke="none" stroke-width="0"/><path d="M145.78571,295.78572l8,-48l12,48z" fill="#009c05" stroke="none" stroke-width="0"/><path d="M19.78571,344.78572l8,-48l12,48z" fill="#009c05" stroke="none" stroke-width="0"/><path d="M8.78571,346.78572l8,-48l12,48z" fill="#009c05" stroke="none" stroke-width="0"/><path d="M31.78571,347.78572l8,-48l12,48z" fill="#009c05" stroke="none" stroke-width="0"/><path d="M202.78572,350.78572l8,-48l12,48z" fill="#009c05" stroke="none" stroke-width="0"/><path d="M191.78572,352.78572l8,-48l12,48z" fill="#009c05" stroke="none" stroke-width="0"/><path d="M214.78572,353.78572l8,-48l12,48z" fill="#009c05" stroke="none" stroke-width="0"/><path d="M445.78572,249.78572l8,-48l12,48z" fill="#009c05" stroke="none" stroke-width="0"/><path d="M434.78572,251.78572l8,-48l12,48z" fill="#009c05" stroke="none" stroke-width="0"/><path d="M457.78572,252.78572l8,-48l12,48z" fill="#009c05" stroke="none" stroke-width="0"/><path d="M79.2857,254.7857c-35.07008,0 -63.5,-22.38576 -63.5,-50c0,-27.61424 28.42992,-50 63.5,-50c35.07008,0 63.5,22.38576 63.5,50c0,27.61424 -28.42992,50 -63.5,50z" fill="#00e408" stroke="none" stroke-width="0"/><path d="M190.7857,159.28571c0,24.57667 -27.53449,44.5 -61.5,44.5c-33.96551,0 -61.5,-19.92333 -61.5,-44.5c0,-24.57667 27.53449,-44.5 61.5,-44.5c33.96551,0 61.5,19.92333 61.5,44.5z" fill="#00e408" stroke="none" stroke-width="0"/><path d="M77.7857,184.78571c0,-27.06195 22.1619,-49 49.5,-49c27.3381,0 49.5,21.93805 49.5,49c0,27.06195 -22.1619,49 -49.5,49c-27.3381,0 -49.5,-21.93805 -49.5,-49z" fill="#00e408" stroke="none" stroke-width="0"/><path d="M159.7857,154.78571c0,31.48023 -28.20606,57 -63,57c-34.79394,0 -63,-25.51977 -63,-57c0,-31.48023 28.20606,-57 63,-57c34.79394,0 63,25.51977 63,57z" fill="#00e408" stroke="none" stroke-width="0"/><path d="M460.7857,133.78571c0,28.16652 -33.57864,51 -75,51c-41.42136,0 -75,-22.83348 -75,-51c0,-28.16652 33.57864,-51 75,-51c41.42136,0 75,22.83348 75,51z" fill="#00e408" stroke="none" stroke-width="0"/><path d="M428.7857,48.78571c25.4051,0 46,18.58018 46,41.5c0,22.91982 -20.5949,41.5 -46,41.5c-25.4051,0 -46,-18.58018 -46,-41.5c0,-22.91982 20.5949,-41.5 46,-41.5z" fill="#00e408" stroke="none" stroke-width="0"/><path d="M434.7857,81.28571c0,22.91982 -29.77306,41.5 -66.5,41.5c-36.72694,0 -66.5,-18.58018 -66.5,-41.5c0,-22.91982 29.77306,-41.5 66.5,-41.5c36.72694,0 66.5,18.58018 66.5,41.5z" fill="#00e408" stroke="none" stroke-width="0"/><path d="M463.7857,45.28571c0,23.4721 -21.71419,42.5 -48.5,42.5c-26.78581,0 -48.5,-19.0279 -48.5,-42.5c0,-23.4721 21.71419,-42.5 48.5,-42.5c26.78581,0 48.5,19.0279 48.5,42.5z" fill="#00e408" stroke="none" stroke-width="0"/><path d="M438.7857,25.78571c0,22.09139 -23.28119,40 -52,40c-28.71881,0 -52,-17.90861 -52,-40c0,-22.09139 23.28119,-40 52,-40c28.71881,0 52,17.90861 52,40z" fill="#00e408" stroke="none" stroke-width="0"/><path d="M464.7857,50.78571c7.73199,0 14,9.17816 14,20.5c0,11.32184 -6.26801,20.5 -14,20.5c-7.73199,0 -14,-9.17816 -14,-20.5c0,-11.32184 6.26801,-20.5 14,-20.5z" fill="#00e408" stroke="none" stroke-width="0"/></g></g></svg>