<svg version="1.1" xmlns="http://www.w3.org/2000/svg" xmlns:xlink="http://www.w3.org/1999/xlink" width="76.74027" height="90.5" viewBox="0,0,76.74027,90.5"><g transform="translate(-201.9307,-134.75)"><g data-paper-data="{&quot;isPaintingLayer&quot;:true}" fill-rule="nonzero" stroke-linejoin="miter" stroke-miterlimit="10" stroke-dasharray="" stroke-dashoffset="0" style="mix-blend-mode: normal"><path d="M207.50001,222.5c0,0 0,-38.24393 0,-57.33334c0,-2.16252 8,-6.41255 8,-8c0,-9.21888 -8,-19.66666 -8,-19.66666h65c0,0 -8.33333,9.26774 -8.33333,19c0,1.26277 8.33333,7.38709 8.33333,9c0,18.39858 0,57 0,57z" fill="#ad8740" stroke="#ffffff" stroke-width="5.5" stroke-linecap="butt"/><path d="M207.50001,222.5c0,0 0,-38.24393 0,-57.33334c0,-2.16252 8,-6.41255 8,-8c0,-9.21888 -8,-19.66666 -8,-19.66666h65c0,0 -8.33333,9.26774 -8.33333,19c0,1.26277 8.33333,7.38709 8.33333,9c0,18.39858 0,57 0,57z" fill="#ad8740" stroke="none" stroke-width="0" stroke-linecap="butt"/><path d="M216.50001,212.66667v-40.66666h47v40.66666z" fill="#ffffff" stroke="none" stroke-width="0" stroke-linecap="butt"/><path d="M213.51191,159.59523v-6.33333h52.66667v6.33333z" fill="#935226" stroke="none" stroke-width="0" stroke-linecap="butt"/><path d="M237.82127,182.50877c0,0 0.8372,-1.84452 1.54146,-2.65547c0.74584,-0.85882 2.816,-2.36208 2.816,-2.36208" fill="none" stroke="#00a133" stroke-width="2" stroke-linecap="round"/><path d="M237.11576,183.99765l-2.1875,-1.9375c0,0 1.0152,0.25 2.375,0.25c0.72531,0 2.0692,-0.78286 2.0692,-0.78286c0,0 1.72696,0.64703 2.74462,0.68565c0.90415,0.03432 1.74868,-0.15279 1.74868,-0.15279l-2.3125,2.0625z" fill="#00a133" stroke="#00a133" stroke-width="2" stroke-linecap="butt"/><path d="M239.90627,206.21655c-7.93992,0 -14.37651,-4.83527 -14.37651,-11.41666c0,-4.26342 2.03238,-8.6304 6.09345,-10.88415c2.20796,-1.22534 5.48661,-0.24681 8.28306,-0.24681c1.88946,0 3.63699,-0.98358 5.20314,-0.43442c5.01514,1.75854 8.17036,6.05015 8.17036,11.06537c0,6.58139 -5.43357,11.91666 -13.37349,11.91666z" fill="#ff4040" stroke="none" stroke-width="0" stroke-linecap="butt"/></g></g></svg>