<svg version="1.1" xmlns="http://www.w3.org/2000/svg" xmlns:xlink="http://www.w3.org/1999/xlink" width="76.74027" height="90.5" viewBox="0,0,76.74027,90.5"><g transform="translate(-201.93069,-134.75)"><g data-paper-data="{&quot;isPaintingLayer&quot;:true}" fill-rule="nonzero" stroke-linecap="butt" stroke-linejoin="miter" stroke-miterlimit="10" stroke-dasharray="" stroke-dashoffset="0" style="mix-blend-mode: normal"><g><path d="M207.5,222.5c0,0 0,-38.24393 0,-57.33334c0,-2.16252 8,-6.41255 8,-8c0,-9.21888 -8,-19.66666 -8,-19.66666h65c0,0 -8.33333,9.26774 -8.33333,19c0,1.26277 8.33333,7.38709 8.33333,9c0,18.39858 0,57 0,57z" fill="#ad8740" stroke="#ffffff" stroke-width="5.5"/><path d="M207.5,222.5c0,0 0,-38.24393 0,-57.33334c0,-2.16252 8,-6.41255 8,-8c0,-9.21888 -8,-19.66666 -8,-19.66666h65c0,0 -8.33333,9.26774 -8.33333,19c0,1.26277 8.33333,7.38709 8.33333,9c0,18.39858 0,57 0,57z" fill="#ad8740" stroke="none" stroke-width="0"/><path d="M216.5,212.66667v-40.66666h47v40.66666z" fill="#ffffff" stroke="none" stroke-width="0"/><path d="M213.5119,159.59523v-6.33333h52.66667v6.33333z" fill="#935226" stroke="none" stroke-width="0"/><path d="M232.63578,184.55203l-5.17942,-6.05488l6.6672,1.03906l5.69446,-2.52189l6.34825,2.7772l6.59526,-0.92366l-5.77135,5.68417z" fill="#0023af" stroke="none" stroke-width="0"/><path d="M240,206.98569c-8.87107,0 -16.0625,-5.70493 -16.0625,-12.74232c0,-7.03739 7.19143,-12.74232 16.0625,-12.74232c8.87107,0 16.0625,5.70493 16.0625,12.74232c0,7.03739 -7.19143,12.74232 -16.0625,12.74232z" fill="#002bd6" stroke="none" stroke-width="NaN"/></g></g></g></svg>