<svg version="1.1" xmlns="http://www.w3.org/2000/svg" xmlns:xlink="http://www.w3.org/1999/xlink" width="76.74027" height="90.5" viewBox="0,0,76.74027,90.5"><g transform="translate(-201.93069,-134.75)"><g data-paper-data="{&quot;isPaintingLayer&quot;:true}" fill-rule="nonzero" stroke-linejoin="miter" stroke-miterlimit="10" stroke-dasharray="" stroke-dashoffset="0" style="mix-blend-mode: normal"><path d="M207.5,222.5c0,0 0,-38.24393 0,-57.33334c0,-2.16252 8,-6.41255 8,-8c0,-9.21888 -8,-19.66666 -8,-19.66666h65c0,0 -8.33333,9.26774 -8.33333,19c0,1.26277 8.33333,7.38709 8.33333,9c0,18.39858 0,57 0,57z" fill="#ad8740" stroke="#ffffff" stroke-width="5.5" stroke-linecap="butt"/><path d="M207.5,222.5c0,0 0,-38.24393 0,-57.33334c0,-2.16252 8,-6.41255 8,-8c0,-9.21888 -8,-19.66666 -8,-19.66666h65c0,0 -8.33333,9.26774 -8.33333,19c0,1.26277 8.33333,7.38709 8.33333,9c0,18.39858 0,57 0,57z" fill="#ad8740" stroke="none" stroke-width="0" stroke-linecap="butt"/><path d="M216.5,212.66667v-40.66666h47v40.66666z" fill="#ffffff" stroke="none" stroke-width="0" stroke-linecap="butt"/><path d="M213.5119,159.59523v-6.33333h52.66667v6.33333z" fill="#935226" stroke="none" stroke-width="0" stroke-linecap="butt"/><path d="M237.46707,186.5351l-3.0724,-5.65066" fill="none" stroke="#1e7300" stroke-width="3.5" stroke-linecap="round"/><path d="M240.14381,185.94779l-0.4484,-7.0697" fill="none" stroke="#1e7300" stroke-width="3.5" stroke-linecap="round"/><path d="M242.48832,186.43449l2.89588,-6.46495" fill="none" stroke="#1e7300" stroke-width="3.5" stroke-linecap="round"/><path d="M230.14369,201.95077c-0.61445,-3.33739 -1.43507,-6.42772 -1.88621,-8.87809c-0.46282,-2.51383 2.21662,-6.29655 4.70272,-6.29655c2.99745,0 8.53535,0 13.42857,0c2.71226,0 5.45259,4.43902 4.79281,7.20088c-0.5499,2.30192 -1.33241,5.345 -2.07303,8.44525c-0.31155,1.30418 -3.24904,5.42782 -6.00538,6.39346c-1.34133,0.46991 -5.81992,0.2437 -7.15372,-0.31546c-2.72699,-1.14321 -5.58643,-5.35817 -5.80576,-6.5495z" fill="#ff0000" stroke="none" stroke-width="0" stroke-linecap="butt"/><path d="M233.44929,203.9814c0,-0.41421 0.33579,-0.75 0.75,-0.75c0.41421,0 0.75,0.33579 0.75,0.75c0,0.41421 -0.33579,0.75 -0.75,0.75c-0.41421,0 -0.75,-0.33579 -0.75,-0.75z" fill="#ffe166" stroke="none" stroke-width="0.5" stroke-linecap="butt"/><path d="M236.22707,205.31473c0,-0.41421 0.33579,-0.75 0.75,-0.75c0.41421,0 0.75,0.33579 0.75,0.75c0,0.41421 -0.33579,0.75 -0.75,0.75c-0.41421,0 -0.75,-0.33579 -0.75,-0.75z" fill="#ffe166" stroke="none" stroke-width="0.5" stroke-linecap="butt"/><path d="M239.78262,205.53696c0,-0.41421 0.33579,-0.75 0.75,-0.75c0.41421,0 0.75,0.33579 0.75,0.75c0,0.41421 -0.33579,0.75 -0.75,0.75c-0.41421,0 -0.75,-0.33579 -0.75,-0.75z" fill="#ffe166" stroke="none" stroke-width="0.5" stroke-linecap="butt"/><path d="M243.67151,203.53696c0,-0.41421 0.33579,-0.75 0.75,-0.75c0.41421,0 0.75,0.33579 0.75,0.75c0,0.41421 -0.33579,0.75 -0.75,0.75c-0.41421,0 -0.75,-0.33579 -0.75,-0.75z" fill="#ffe166" stroke="none" stroke-width="0.5" stroke-linecap="butt"/><path d="M239.11595,201.20362c0,-0.41421 0.33579,-0.75 0.75,-0.75c0.41421,0 0.75,0.33579 0.75,0.75c0,0.41421 -0.33579,0.75 -0.75,0.75c-0.41421,0 -0.75,-0.33579 -0.75,-0.75z" fill="#ffe166" stroke="none" stroke-width="0.5" stroke-linecap="butt"/><path d="M234.67151,200.53696c0,-0.41421 0.33579,-0.75 0.75,-0.75c0.41421,0 0.75,0.33579 0.75,0.75c0,0.41421 -0.33579,0.75 -0.75,0.75c-0.41421,0 -0.75,-0.33579 -0.75,-0.75z" fill="#ffe166" stroke="none" stroke-width="0.5" stroke-linecap="butt"/><path d="M231.22707,197.42585c0,-0.41421 0.33579,-0.75 0.75,-0.75c0.41421,0 0.75,0.33579 0.75,0.75c0,0.41421 -0.33579,0.75 -0.75,0.75c-0.41421,0 -0.75,-0.33579 -0.75,-0.75z" fill="#ffe166" stroke="none" stroke-width="0.5" stroke-linecap="butt"/><path d="M236.22707,196.09251c0,-0.41421 0.33579,-0.75 0.75,-0.75c0.41421,0 0.75,0.33579 0.75,0.75c0,0.41421 -0.33579,0.75 -0.75,0.75c-0.41421,0 -0.75,-0.33579 -0.75,-0.75z" fill="#ffe166" stroke="none" stroke-width="0.5" stroke-linecap="butt"/><path d="M242.11595,198.31473c0,-0.41421 0.33579,-0.75 0.75,-0.75c0.41421,0 0.75,0.33579 0.75,0.75c0,0.41421 -0.33579,0.75 -0.75,0.75c-0.41421,0 -0.75,-0.33579 -0.75,-0.75z" fill="#ffe166" stroke="none" stroke-width="0.5" stroke-linecap="butt"/><path d="M246.00484,196.9814c0,-0.41421 0.33579,-0.75 0.75,-0.75c0.41421,0 0.75,0.33579 0.75,0.75c0,0.41421 -0.33579,0.75 -0.75,0.75c-0.41421,0 -0.75,-0.33579 -0.75,-0.75z" fill="#ffe166" stroke="none" stroke-width="0.5" stroke-linecap="butt"/><path d="M246.5604,200.75918c0,-0.41421 0.33579,-0.75 0.75,-0.75c0.41421,0 0.75,0.33579 0.75,0.75c0,0.41421 -0.33579,0.75 -0.75,0.75c-0.41421,0 -0.75,-0.33579 -0.75,-0.75z" fill="#ffe166" stroke="none" stroke-width="0.5" stroke-linecap="butt"/><path d="M241.67151,193.42585c0,-0.41421 0.33579,-0.75 0.75,-0.75c0.41421,0 0.75,0.33579 0.75,0.75c0,0.41421 -0.33579,0.75 -0.75,0.75c-0.41421,0 -0.75,-0.33579 -0.75,-0.75z" fill="#ffe166" stroke="none" stroke-width="0.5" stroke-linecap="butt"/><path d="M244.67151,191.42585c0,-0.41421 0.33579,-0.75 0.75,-0.75c0.41421,0 0.75,0.33579 0.75,0.75c0,0.41421 -0.33579,0.75 -0.75,0.75c-0.41421,0 -0.75,-0.33579 -0.75,-0.75z" fill="#ffe166" stroke="none" stroke-width="0.5" stroke-linecap="butt"/><path d="M241.5604,189.42585c0,-0.41421 0.33579,-0.75 0.75,-0.75c0.41421,0 0.75,0.33579 0.75,0.75c0,0.41421 -0.33579,0.75 -0.75,0.75c-0.41421,0 -0.75,-0.33579 -0.75,-0.75z" fill="#ffe166" stroke="none" stroke-width="0.5" stroke-linecap="butt"/><path d="M237.33818,192.09251c0,-0.41421 0.33579,-0.75 0.75,-0.75c0.41421,0 0.75,0.33579 0.75,0.75c0,0.41421 -0.33579,0.75 -0.75,0.75c-0.41421,0 -0.75,-0.33579 -0.75,-0.75z" fill="#ffe166" stroke="none" stroke-width="0.5" stroke-linecap="butt"/><path d="M233.78262,189.53696c0,-0.41421 0.33579,-0.75 0.75,-0.75c0.41421,0 0.75,0.33579 0.75,0.75c0,0.41421 -0.33579,0.75 -0.75,0.75c-0.41421,0 -0.75,-0.33579 -0.75,-0.75z" fill="#ffe166" stroke="none" stroke-width="0.5" stroke-linecap="butt"/><path d="M230.11595,192.09251c0,-0.41421 0.33579,-0.75 0.75,-0.75c0.41421,0 0.75,0.33579 0.75,0.75c0,0.41421 -0.33579,0.75 -0.75,0.75c-0.41421,0 -0.75,-0.33579 -0.75,-0.75z" fill="#ffe166" stroke="none" stroke-width="0.5" stroke-linecap="butt"/><path d="M233.89373,193.64807c0,-0.41421 0.33579,-0.75 0.75,-0.75c0.41421,0 0.75,0.33579 0.75,0.75c0,0.41421 -0.33579,0.75 -0.75,0.75c-0.41421,0 -0.75,-0.33579 -0.75,-0.75z" fill="#ffe166" stroke="none" stroke-width="0.5" stroke-linecap="butt"/><path d="M248.5604,192.64807c0,-0.41421 0.33579,-0.75 0.75,-0.75c0.41421,0 0.75,0.33579 0.75,0.75c0,0.41421 -0.33579,0.75 -0.75,0.75c-0.41421,0 -0.75,-0.33579 -0.75,-0.75z" fill="#ffe166" stroke="none" stroke-width="0.5" stroke-linecap="butt"/></g></g></svg>